<svg width="269" height="217" viewBox="0 0 269 217" fill="none" xmlns="http://www.w3.org/2000/svg">
<path d="M153.244 191.871C151.384 189.266 148.866 187.36 145.7 186.647C142.94 186.025 140.102 186.131 137.296 186.153L101.815 186.426C98.7766 186.45 95.8632 189.082 96.0043 192.237C96.1444 195.365 98.5581 198.073 101.815 198.048C112.209 197.968 122.602 197.888 132.995 197.808C135.445 197.789 137.897 197.745 140.347 197.753C140.898 197.754 141.446 197.783 141.995 197.79C142.128 197.791 142.225 197.79 142.293 197.787C142.31 197.792 142.324 197.797 142.346 197.803C142.633 197.882 142.927 197.936 143.216 198.011C143.114 198.014 143.403 198.194 143.547 198.255C143.567 198.294 143.61 198.363 143.68 198.471C143.779 198.656 144.072 199.218 144.084 199.201C144.523 200.312 144.885 201.451 145.168 202.612C145.844 205.172 145.992 205.707 146.089 208.108C146.212 211.141 148.674 214.063 151.9 213.919C154.943 213.782 157.843 211.361 157.711 208.108C157.489 202.626 156.527 196.468 153.244 191.871Z" fill="white"/>
<path d="M103.901 204.985C103.235 200.946 102.581 196.905 101.902 192.869C101.212 188.774 99.8044 185.025 96.618 182.337C95.7666 181.619 94.8838 180.949 93.9973 180.281C93.6856 180.046 93.3743 179.811 93.0663 179.571C93.0479 179.556 93.0362 179.547 93.0202 179.535C92.9863 179.506 92.9457 179.471 92.8911 179.425C91.563 178.301 90.2798 177.127 89.0574 175.879C87.972 174.771 86.9339 173.615 85.9432 172.412C85.6957 172.112 85.4513 171.809 85.2101 171.503C85.1686 171.451 84.9452 171.162 84.798 170.973C84.6611 170.785 84.4109 170.444 84.3689 170.385C84.0871 169.986 83.8103 169.584 83.5386 169.178C81.6878 166.405 80.0851 163.474 78.7493 160.42C78.6168 160.117 78.4875 159.812 78.3613 159.506C78.3274 159.412 78.2836 159.292 78.2254 159.132C77.9562 158.392 77.6876 157.652 77.4414 156.903C76.9185 155.312 76.4689 153.698 76.0926 152.06C75.9066 151.251 75.7391 150.438 75.5902 149.621C75.5134 149.201 75.4416 148.78 75.3748 148.358C75.3638 148.288 75.2985 147.833 75.26 147.576C75.2316 147.317 75.1788 146.86 75.1717 146.789C75.1291 146.364 75.0914 145.938 75.0584 145.512C74.9841 144.553 74.9339 143.593 74.9077 142.631C74.863 140.921 74.8936 139.211 74.9995 137.502C75.0598 136.541 75.1457 135.583 75.2514 134.627C75.2577 134.568 75.2627 134.522 75.2673 134.479C75.2737 134.437 75.2811 134.388 75.29 134.328C75.3682 133.799 75.4505 133.272 75.5425 132.746C75.8911 130.748 76.3444 128.771 76.9006 126.821C77.1639 125.899 77.45 124.984 77.7587 124.077C77.8963 123.674 78.0383 123.273 78.1847 122.873C78.1751 122.899 78.614 121.778 78.6198 121.74C80.3613 117.626 83.2097 113.875 83.2136 109.201C83.2162 106.036 80.539 103.005 77.4026 103.151C75.8389 103.21 74.3591 103.874 73.2751 105.002C72.1911 106.131 71.5876 107.636 71.5917 109.201C71.5917 109.272 71.5913 109.333 71.5911 109.392C71.5619 109.49 71.5374 109.572 71.5154 109.645C71.1758 110.383 70.7598 111.084 70.387 111.804C69.3663 113.774 68.495 115.808 67.6674 117.872C66.3125 121.234 65.2754 124.715 64.5697 128.269C63.0358 136.058 62.9167 144.06 64.2182 151.891C66.4713 165.624 73.9013 178.77 84.2307 187.606C85.1272 188.373 86.0454 189.114 86.9723 189.84C87.3559 190.14 87.7427 190.435 88.1314 190.728C88.3151 190.867 89.0763 191.467 88.7415 191.176C89.4614 191.791 89.7645 192.1 89.9495 192.553C89.9762 192.657 90.0128 192.799 90.0622 192.992C90.1926 193.503 90.3164 194.012 90.4192 194.53C91.3183 199.052 91.9433 203.65 92.6943 208.201C93.2105 211.328 97.0605 213.364 99.8425 212.426C103.081 211.335 104.454 208.335 103.901 204.985Z" fill="white"/>
<path d="M153.831 216.714C151.391 216.72 149.047 215.758 147.315 214.039C145.583 212.32 144.604 209.984 144.592 207.544V200.915C137.652 201.692 113.887 201.512 107.075 200.417V207.278C107.057 209.717 106.075 212.049 104.344 213.767C102.614 215.485 100.274 216.449 97.8354 216.449C95.3969 216.449 93.0572 215.485 91.3265 213.767C89.5957 212.049 88.6142 209.717 88.5959 207.278V193.807C79.3695 188.682 71.678 181.187 66.3151 172.096C60.9523 163.006 58.1124 152.649 58.0885 142.094C58.0885 123.997 66.2903 107.114 80.5909 95.7761C89.889 88.379 101.186 83.9304 113.031 83.0017C114.639 82.8756 116.257 82.8118 117.839 82.8118C123.415 82.8118 148.572 83.6731 154.883 85.489L169.276 71.208C169.487 70.9952 169.757 70.8502 170.052 70.7916C170.346 70.7329 170.651 70.7633 170.928 70.8787C171.207 70.9897 171.446 71.1826 171.614 71.4319C171.781 71.6812 171.869 71.9754 171.867 72.2757V74.5464L174.669 71.7709C174.88 71.5579 175.15 71.4127 175.444 71.3539C175.739 71.2952 176.044 71.3255 176.32 71.441C176.6 71.552 176.839 71.7449 177.007 71.9943C177.174 72.2437 177.263 72.5381 177.26 72.8386V98.2124C184.482 104.723 189.986 112.914 193.285 122.061C196.584 131.207 197.576 141.027 196.172 150.648C194.769 160.269 191.014 169.396 185.24 177.219C179.466 185.042 171.851 191.321 163.07 195.497V207.544C163.058 209.984 162.079 212.32 160.347 214.039C158.615 215.758 156.271 216.72 153.831 216.714ZM145.318 200.091V207.544C145.336 209.789 146.241 211.937 147.836 213.518C149.43 215.1 151.585 215.987 153.831 215.987C156.077 215.987 158.232 215.1 159.826 213.518C161.421 211.937 162.326 209.789 162.344 207.544V195.038L162.551 194.94C172.404 190.265 180.768 182.95 186.714 173.809C194.292 162.144 197.443 148.152 195.598 134.365C193.753 120.577 187.033 107.906 176.654 98.6447L176.534 98.5363V72.8386C176.536 72.6825 176.491 72.5293 176.404 72.3997C176.317 72.2701 176.192 72.1703 176.046 72.1138C175.902 72.052 175.742 72.0353 175.587 72.0659C175.433 72.0966 175.292 72.1732 175.182 72.2857L171.14 76.2881V72.2757C171.143 72.1196 171.098 71.9664 171.011 71.8368C170.923 71.7072 170.799 71.6075 170.653 71.551C170.508 71.4892 170.348 71.4727 170.193 71.5035C170.039 71.5344 169.897 71.6113 169.787 71.724L155.086 86.3108L154.878 86.2454C149.01 84.4089 123.458 83.5382 117.839 83.5382C116.276 83.5382 114.677 83.6013 113.088 83.726C101.387 84.6433 90.2273 89.0379 81.0422 96.3452C66.9164 107.545 58.8148 124.22 58.8148 142.094C58.839 152.555 61.6637 162.819 66.9955 171.82C72.3274 180.82 79.9719 188.229 89.1349 193.276L89.3223 193.38V207.278C89.341 209.524 90.2462 211.671 91.8407 213.252C93.4351 214.834 95.5898 215.721 97.8354 215.721C100.081 215.721 102.236 214.834 103.83 213.252C105.425 211.671 106.33 209.524 106.348 207.278V199.548L106.779 199.629C112.901 200.781 138.678 200.962 144.908 200.145L145.318 200.091Z" fill="#2C395D"/>
<path d="M104.595 43.2612L64.3757 55.348C63.0965 55.734 62.0228 56.612 61.3905 57.7891C60.7582 58.9662 60.619 60.3462 61.0036 61.6259C61.3881 62.9055 62.2649 63.9802 63.4413 64.6138C64.6177 65.2474 65.9975 65.3882 67.2776 65.0051L102.474 54.4255L103.211 54.204C103.36 50.4045 104.391 46.6919 106.222 43.3593C105.992 43.2559 105.746 43.1921 105.495 43.1704C105.192 43.1411 104.886 43.1719 104.595 43.2612Z" fill="#EC4A42"/>
<path d="M66.5828 67.5806C66.0489 67.5793 65.5289 67.4103 65.0963 67.0974C64.6637 66.7845 64.3404 66.3435 64.172 65.8369L61.6571 58.2478C61.552 57.9309 61.5104 57.5964 61.5347 57.2634C61.5589 56.9304 61.6485 56.6054 61.7984 56.3071C61.9482 56.0087 62.1554 55.7428 62.408 55.5245C62.6607 55.3062 62.9538 55.1398 63.2708 55.0348L96.005 44.1865C96.3218 44.0815 96.6563 44.0399 96.9893 44.0641C97.3223 44.0883 97.6472 44.1779 97.9456 44.3277C98.2439 44.4775 98.5098 44.6846 98.7282 44.9371C98.9465 45.1897 99.1129 45.4828 99.2179 45.7997L101.733 53.3888C101.942 54.013 101.9 54.6941 101.616 55.2879C101.332 55.8817 100.827 56.3416 100.21 56.57C100.18 56.5814 100.149 56.5921 100.118 56.6021L67.385 67.4501C67.1263 67.5364 66.8555 67.5804 66.5828 67.5806Z" fill="#2C395D"/>
<path d="M127.885 29.7844C121.279 29.787 114.932 32.3602 110.189 36.9594C105.446 41.5586 102.679 47.8229 102.473 54.4264C102.466 54.6843 102.463 54.9458 102.463 55.2073C102.463 60.2355 103.954 65.1507 106.747 69.3315C109.541 73.5122 113.511 76.7707 118.156 78.6949C122.802 80.6191 127.914 81.1226 132.845 80.1417C137.777 79.1607 142.307 76.7394 145.862 73.184C149.418 69.6285 151.839 65.0986 152.82 60.167C153.801 55.2355 153.297 50.1238 151.373 45.4784C149.449 40.833 146.19 36.8625 142.01 34.069C137.829 31.2755 132.914 29.7844 127.885 29.7844ZM127.885 79.9038C121.338 79.897 115.06 77.2928 110.43 72.6628C105.8 68.0328 103.196 61.7551 103.189 55.2073C103.189 54.8695 103.196 54.5354 103.211 54.2049C103.407 49.3672 105.022 44.6941 107.853 40.7665C110.684 36.839 114.608 33.8303 119.135 32.1147C123.663 30.399 128.595 30.0521 133.318 31.117C138.041 32.1818 142.347 34.6116 145.7 38.1041C149.053 41.5965 151.306 45.9976 152.178 50.7601C153.05 55.5226 152.503 60.4364 150.605 64.8904C148.706 69.3445 145.541 73.1422 141.501 75.8116C137.462 78.4809 132.727 79.9039 127.885 79.9038Z" fill="#2C395D"/>
<path d="M149.314 55.2068C149.314 60.8898 147.057 66.3401 143.038 70.3586C139.02 74.3771 133.57 76.6347 127.887 76.6347C122.204 76.6347 116.753 74.3771 112.735 70.3586C108.716 66.3401 106.459 60.8898 106.459 55.2068C106.459 54.5277 106.491 53.8594 106.553 53.1984C107.069 47.7137 109.678 42.6386 113.838 39.0268C117.998 35.4151 123.389 33.5442 128.892 33.8027C134.395 34.0611 139.587 36.4291 143.39 40.4148C147.193 44.4006 149.314 49.6979 149.314 55.2068Z" fill="white"/>
<path d="M134.267 56.6292C133.748 55.9463 133.064 55.4055 132.281 55.0566C131.314 54.6492 130.315 54.3212 129.295 54.076V48.2433C130.863 48.4797 132.334 49.1503 133.541 50.1791L134.725 47.655C134.044 47.0483 133.262 46.5653 132.415 46.2276C131.476 45.8474 130.49 45.5946 129.484 45.4759V42.5195H126.742V45.5049C125.683 45.6238 124.662 45.9668 123.746 46.5109C122.918 47.0007 122.222 47.6836 121.715 48.5012C121.232 49.2991 120.982 50.2161 120.993 51.1488C120.946 52.1595 121.238 53.1568 121.824 53.9816C122.364 54.6957 123.076 55.2607 123.895 55.6232C124.877 56.0427 125.892 56.3792 126.931 56.6292V62.2186C125.08 62.079 123.317 61.3755 121.879 60.2029L120.695 62.7307C121.499 63.3956 122.414 63.9143 123.397 64.2633C124.475 64.6489 125.6 64.8836 126.742 64.9607V67.8916H129.484V64.9062C131.007 64.7398 132.435 64.0849 133.555 63.0394C134.049 62.5664 134.438 61.9961 134.699 61.3647C134.961 60.7333 135.088 60.0545 135.073 59.3713C135.119 58.3928 134.835 57.4273 134.267 56.6292ZM126.931 53.4586C126.263 53.2561 125.642 52.9228 125.104 52.478C124.891 52.2884 124.722 52.0539 124.611 51.7914C124.499 51.529 124.447 51.245 124.458 50.9599C124.438 50.3131 124.676 49.6848 125.119 49.213C125.61 48.7181 126.243 48.3892 126.931 48.2724V53.4586ZM131.017 61.1872C130.553 61.6624 129.95 61.9767 129.295 62.0842V57.2757C129.921 57.4436 130.507 57.7364 131.017 58.1364C131.21 58.3015 131.364 58.5081 131.466 58.7407C131.569 58.9734 131.617 59.2261 131.609 59.4802C131.634 60.1035 131.422 60.7133 131.017 61.1872Z" fill="#EC4A42"/>
<path d="M67.7484 98.3403C67.187 98.3394 66.6415 98.1532 66.1966 97.8107C65.7518 97.4683 65.4323 96.9885 65.2878 96.446L63.9186 91.2634C63.7472 90.612 63.8412 89.9192 64.1799 89.337C64.5186 88.7547 65.0744 88.3306 65.7254 88.1577L108.923 76.743C109.575 76.5729 110.267 76.6679 110.849 77.0072C111.431 77.3465 111.855 77.9025 112.028 78.5535L113.188 82.9444L112.971 82.9612C101.892 83.8227 91.292 87.8394 82.4245 94.5363L82.3615 94.5668L68.3934 98.2566C68.1829 98.3122 67.9661 98.3403 67.7484 98.3403Z" fill="#2C395D"/>
<path d="M60.5954 123.94C55.5281 123.192 50.6818 121.359 46.3868 118.568C44.259 117.186 42.2892 115.575 40.5127 113.764C38.7593 111.975 37.0819 109.943 36.2134 107.561C35.3778 105.357 35.4209 102.917 36.3337 100.744C37.2341 98.5849 38.954 96.8706 41.1164 95.9773C43.2917 95.1098 45.92 95.017 48.037 95.9671C49.0459 96.4093 49.9188 97.112 50.5664 98.003C50.8673 98.4138 51.0902 98.8765 51.2238 99.3679C51.3478 99.8132 51.3591 100.282 51.2566 100.733C51.1325 101.183 50.9136 101.601 50.6145 101.96C50.3155 102.318 49.9433 102.609 49.5228 102.812C48.5975 103.286 47.5949 103.592 46.5621 103.715C45.5234 103.856 44.0312 103.985 43.1961 103.151C43.0243 102.986 42.889 102.787 42.7993 102.566C42.7366 102.397 42.7151 102.216 42.7367 102.037C42.7245 102.116 42.7871 101.865 42.7835 101.875C42.7703 101.912 42.7131 102.002 42.7944 101.864C42.8198 101.818 42.8481 101.774 42.8791 101.732C42.8515 101.768 42.7909 101.827 42.8991 101.725C42.9886 101.627 43.1036 101.556 43.2312 101.52C43.2815 101.505 43.3325 101.494 43.3829 101.48C43.511 101.445 43.2552 101.482 43.3862 101.478C43.4368 101.476 43.488 101.477 43.5384 101.475C43.667 101.469 43.4116 101.44 43.5348 101.471C43.5826 101.483 43.63 101.495 43.6771 101.51C43.7796 101.542 43.6046 101.434 43.674 101.515C43.7554 101.609 43.5886 101.423 43.6811 101.514C43.7271 101.56 43.7705 101.607 43.811 101.658C43.9713 101.816 44.1876 101.905 44.4129 101.905C44.6383 101.905 44.8546 101.816 45.0149 101.658C45.1698 101.496 45.2563 101.28 45.2563 101.056C45.2563 100.831 45.1698 100.616 45.0149 100.454C44.1755 99.413 42.5173 99.6702 41.6681 100.55C40.5851 101.671 41.0139 103.449 42.0674 104.428C43.26 105.536 44.9491 105.613 46.4831 105.427C47.7796 105.303 49.043 104.946 50.2127 104.373C51.375 103.802 52.284 102.82 52.7637 101.617C52.9803 100.975 53.0581 100.295 52.992 99.6203C52.9258 98.9461 52.7173 98.2936 52.3801 97.706C51.0256 95.1596 48.2211 93.8542 45.4489 93.628C44.0217 93.5162 42.5865 93.6886 41.2263 94.1351C39.8661 94.5816 38.608 95.2935 37.5247 96.2294C35.4368 98.1091 34.151 100.719 33.9335 103.52C33.6915 106.424 34.8182 109.245 36.4609 111.588C38.1807 113.969 40.2329 116.092 42.555 117.891C47.0945 121.515 52.4195 124.026 58.1036 125.224C58.7797 125.363 59.4594 125.483 60.1428 125.582C60.3602 125.635 60.5895 125.603 60.7841 125.492C60.9787 125.382 61.1238 125.201 61.19 124.988C61.2483 124.77 61.2187 124.538 61.1074 124.342C60.9961 124.146 60.8122 124.002 60.5954 123.94L60.5954 123.94Z" fill="#2C395D"/>
<path d="M141.724 86.939C134.3 86.8342 126.899 87.0226 119.522 87.5042C117 87.6689 114.818 88.5601 114.818 90.0581C114.818 91.3106 116.983 92.7779 119.522 92.612C126.895 92.1305 134.296 91.9421 141.724 92.0468C147.78 92.1323 147.776 87.0244 141.724 86.939Z" fill="white"/>
<path d="M130.752 91.7948C129.95 91.7948 111.102 91.7648 111.102 89.1613C111.102 86.558 129.95 86.5281 130.752 86.5281C131.555 86.5281 150.403 86.558 150.403 89.1613C150.403 91.7648 131.555 91.7948 130.752 91.7948ZM111.839 89.1613C112.355 89.9507 119.283 91.0684 130.752 91.0684C142.222 91.0684 149.15 89.9507 149.666 89.1613C149.15 88.3722 142.222 87.2544 130.752 87.2544C119.283 87.2544 112.355 88.3722 111.839 89.1613V89.1613Z" fill="#2C395D"/>
<path d="M190.552 160.236C194.724 160.12 199.917 159.975 203.917 157.053C205.109 156.147 206.087 154.992 206.785 153.668C207.483 152.344 207.883 150.883 207.956 149.388C208.038 147.081 207.204 145.066 205.608 143.718C203.519 141.952 200.468 141.538 197.18 142.504L200.586 117.609L198.086 117.266L194.081 146.534L196.169 145.576C198.59 144.465 201.914 143.9 203.979 145.645C204.486 146.102 204.881 146.669 205.134 147.302C205.386 147.936 205.489 148.62 205.434 149.3C205.373 150.412 205.072 151.498 204.554 152.484C204.035 153.471 203.31 154.333 202.428 155.014C199.315 157.288 195.176 157.582 190.482 157.713L190.552 160.236Z" fill="#2C395D"/>
<path d="M183.638 119.757H170.043V122.282H183.638V119.757Z" fill="#2C395D"/>
<path d="M73.9005 109.948C73.2953 109.947 72.7107 109.729 72.2512 109.335C71.7918 108.942 71.4875 108.397 71.393 107.799L70.5632 102.504C70.4596 101.838 70.6244 101.158 71.0215 100.613C71.4186 100.068 72.0156 99.7033 72.6814 99.5983L116.82 92.6824C117.486 92.5787 118.166 92.7436 118.71 93.1407C119.255 93.5377 119.62 94.1347 119.725 94.8004L120.554 100.096C120.658 100.762 120.493 101.442 120.096 101.987C119.699 102.532 119.102 102.897 118.436 103.002L74.2982 109.917C74.1666 109.938 74.0337 109.948 73.9005 109.948Z" fill="#2C395D"/>
<path d="M55.6347 47.8868C65.8643 47.8868 74.157 39.594 74.157 29.3644C74.157 19.1348 65.8643 10.842 55.6347 10.842C45.4051 10.842 37.1123 19.1348 37.1123 29.3644C37.1123 39.594 45.4051 47.8868 55.6347 47.8868Z" fill="#EC4A42"/>
<path d="M66.1217 34.1563C66.7137 33.9493 67.2545 33.6179 67.7077 33.1844C68.0075 32.8753 68.2362 32.5045 68.3777 32.0977C68.5191 31.691 68.5699 31.2583 68.5266 30.8299C68.5014 30.5245 68.4059 30.2291 68.2476 29.9668C68.0894 29.7044 67.8726 29.4822 67.6142 29.3175C66.9439 28.9053 66.0581 28.9209 65.1638 29.3354L65.0606 22.1052L64.3344 22.1156L64.4557 30.6154L65.0086 30.2528C65.6497 29.833 66.5709 29.5286 67.2336 29.9363C67.3976 30.0442 67.5344 30.1885 67.6335 30.3579C67.7325 30.5273 67.7912 30.7173 67.8049 30.9131C67.8355 31.2322 67.7969 31.5543 67.6918 31.8572C67.5868 32.1601 67.4177 32.4369 67.1961 32.6686C66.4088 33.4498 65.2433 33.7116 63.9132 33.951L64.0419 34.6658C64.749 34.5585 65.4451 34.3879 66.1217 34.1563Z" fill="#2C395D"/>
<path d="M72.5394 21.5995L68.6714 22.1853L68.7801 22.9034L72.6481 22.3176L72.5394 21.5995Z" fill="#2C395D"/>
<path d="M60.3298 23.4472L56.4618 24.033L56.5705 24.751L60.4385 24.1653L60.3298 23.4472Z" fill="#2C395D"/>
<path d="M67.8749 109.627C67.2088 109.625 66.5589 109.421 66.0117 109.041C65.4644 108.662 65.0459 108.124 64.8116 107.5L52.041 73.2998C50.4801 69.1053 50.6468 64.463 52.5045 60.3912C54.3622 56.3195 57.7591 53.1509 61.9502 51.5806L72.3342 47.7032C72.7357 47.5522 73.1631 47.4822 73.5918 47.4971C74.0206 47.512 74.4421 47.6115 74.8322 47.7899C75.2213 47.9638 75.5719 48.2135 75.8635 48.5244C76.155 48.8353 76.3817 49.2012 76.5302 49.6007L100.187 94.2664C100.34 94.6692 100.413 95.0984 100.4 95.5292C100.387 95.9601 100.289 96.3841 100.111 96.777C99.934 97.1698 99.6807 97.5237 99.366 97.8182C99.0512 98.1128 98.6813 98.3422 98.2776 98.4932L69.0172 109.419C68.6519 109.556 68.265 109.627 67.8749 109.627Z" fill="#2C395D"/>
<path d="M69.1829 48.8785L92.6551 80.2669L76.7725 49.208C76.6413 48.8456 76.44 48.5126 76.1801 48.228C75.9202 47.9434 75.6068 47.7128 75.2578 47.5494C74.9087 47.3859 74.5309 47.2928 74.1459 47.2755C73.7609 47.2581 73.3762 47.3167 73.0139 47.448L69.1829 48.8785Z" fill="white"/>
<path d="M106.349 72.7156L64.439 70.016C63.7784 69.9734 63.1326 69.8012 62.5386 69.5091C61.9445 69.217 61.4139 68.8107 60.9768 68.3135C60.5398 67.8163 60.205 67.2379 59.9915 66.6113C59.778 65.9847 59.69 65.3222 59.7326 64.6616C59.7751 64.001 59.9474 63.3553 60.2395 62.7612C60.5316 62.1672 60.9378 61.6365 61.435 61.1995C61.9322 60.7625 62.5107 60.4277 63.1373 60.2142C63.7639 60.0007 64.4264 59.9127 65.087 59.9552L106.997 62.6546C107.306 62.6745 107.608 62.7552 107.887 62.892C108.165 63.0288 108.413 63.219 108.618 63.4518C108.823 63.6847 108.98 63.9556 109.08 64.249C109.179 64.5425 109.221 64.8527 109.201 65.1621L108.856 70.5115C108.816 71.1363 108.529 71.7195 108.059 72.1328C107.589 72.5462 106.973 72.7558 106.349 72.7156Z" fill="#EC4A42"/>
<path d="M95.1505 74.4449C95.0951 74.4449 95.0397 74.4432 94.984 74.4396H94.984L60.5701 72.2229C60.2369 72.2015 59.9112 72.1147 59.6116 71.9674C59.312 71.8201 59.0443 71.6152 58.8239 71.3644C58.6035 71.1137 58.4346 70.822 58.327 70.5059C58.2193 70.1899 58.1749 69.8558 58.1964 69.5226L58.7849 60.3856C58.8064 60.0524 58.8933 59.7267 59.0406 59.4271C59.1879 59.1275 59.3928 58.8599 59.6436 58.6395C59.8944 58.4191 60.1861 58.2502 60.5022 58.1426C60.8182 58.035 61.1524 57.9906 61.4855 58.0121L95.8994 60.2286C96.5719 60.2727 97.1995 60.5817 97.6445 61.088C98.0895 61.5942 98.3155 62.2563 98.2729 62.9289L97.6845 72.0661C97.6521 72.5557 97.4791 73.0256 97.1862 73.4192C96.8933 73.8129 96.493 74.1137 96.0334 74.2855C95.751 74.3911 95.452 74.4451 95.1505 74.4449Z" fill="#2C395D"/>
<path d="M55.4219 17.048C57.8585 14.9523 61.2047 16.8271 63.9991 16.4989C66.6725 16.1849 68.7835 13.7868 69.3228 11.2391C69.952 8.26683 68.4092 5.28902 66.1353 3.43584C63.6448 1.40616 60.3417 0.823487 57.2117 1.19899C53.6243 1.62937 50.3435 3.30159 47.3996 5.32423C44.558 7.2161 41.9449 9.4304 39.6123 11.923C37.5236 14.2298 35.7539 16.9795 35.1888 20.0836C34.6753 22.9047 35.0674 26.0308 36.7351 28.4206C37.6194 29.6454 38.8045 30.6218 40.176 31.2553C41.606 31.9575 43.1314 32.4595 44.5168 33.2534C46.6115 34.4539 48.6475 36.943 47.9913 39.5332C47.8506 40.0991 47.573 40.6217 47.1828 41.055C46.7141 41.5753 45.8686 40.8877 46.3386 40.366C47.164 39.4496 47.1315 38.2276 46.6916 37.1336C46.1685 35.9008 45.2422 34.8822 44.0645 34.2447C42.6143 33.4156 41.0133 32.9038 39.5269 32.1486C38.1042 31.4587 36.8693 30.4353 35.9272 29.1654C34.1483 26.6932 33.6162 23.4758 34.0196 20.4995C34.4562 17.2786 36.1111 14.3518 38.1856 11.8991C40.4432 9.22995 43.2164 6.97054 46.0494 4.94077C49.0893 2.76282 52.4477 0.921502 56.1641 0.255529C59.3856 -0.321766 62.8774 0.0336529 65.6945 1.78923C68.3241 3.42795 70.3405 6.24686 70.541 9.39673C70.613 10.8299 70.3018 12.2564 69.6395 13.5294C68.9771 14.8023 67.9875 15.8758 66.7725 16.6394C65.5258 17.3854 64.0763 17.7212 62.6286 17.5994C61.0808 17.5003 59.5316 17.0264 57.974 17.1579C57.2691 17.2007 56.5975 17.4721 56.0607 17.931C55.5283 18.3889 54.8938 17.5022 55.4219 17.048V17.048Z" fill="#2C395D"/>
<path d="M268.568 216.882H0.431186C0.316714 216.882 0.207046 216.836 0.126219 216.755C0.0453916 216.674 0 216.564 0 216.45C0 216.336 0.0453916 216.226 0.126219 216.145C0.207046 216.064 0.316714 216.018 0.431186 216.018H268.568C268.682 216.018 268.792 216.063 268.873 216.144C268.954 216.225 269 216.335 269 216.45C269 216.565 268.954 216.675 268.873 216.756C268.792 216.837 268.682 216.882 268.568 216.882Z" fill="#2C395D"/>
</svg>
