<svg width="180" height="188" viewBox="0 0 180 188" fill="none" xmlns="http://www.w3.org/2000/svg">
<path d="M153.462 58.2552C168.457 57.6842 180.337 45.0343 179.993 30.0415C179.823 22.8398 176.841 15.9903 171.685 10.9568C166.528 5.9234 159.606 3.10537 152.399 3.10506H151.939C147.821 0.969413 143.232 -0.0960697 138.594 0.00680161C133.956 0.109673 129.418 1.37759 125.399 3.69371C120.994 1.14559 115.966 -0.129135 110.878 0.0117327C96.1029 0.388466 84.1523 12.5293 84.0021 27.3013C83.9258 33.4183 85.8951 39.3858 89.5975 44.2572C87.1135 48.4537 85.7921 53.2353 85.7691 58.111C85.6837 72.9743 97.5813 85.3565 112.444 85.8421C116.04 85.966 119.624 85.385 122.996 84.1321C128.427 90.9545 134.638 99.4015 133.407 102.418C131.866 106.192 132.782 144.489 133.218 159.855C133.227 160.12 133.25 160.385 133.289 160.647C123.111 161.203 115.746 162.816 115.746 164.721C115.746 167.075 127.084 169 141.072 169C155.061 169 166.399 167.084 166.399 164.721C166.399 163.838 164.77 162.996 161.981 162.307C162.72 161.866 163.411 161.349 164.043 160.765C164.605 160.244 165.135 159.626 165.297 158.875C165.459 158.125 165.138 157.224 164.414 156.95C163.61 156.641 162.75 157.201 162.099 157.763C161.448 158.325 160.7 158.967 159.846 158.849C160.285 158.451 160.613 157.947 160.799 157.384C160.985 156.822 161.022 156.221 160.907 155.641C160.869 155.401 160.767 155.177 160.612 154.99C160.164 154.513 159.354 154.717 158.821 155.093C157.119 156.288 156.645 158.599 156.636 160.685C156.466 159.935 156.61 159.155 156.604 158.387C156.598 157.619 156.389 156.765 155.741 156.35C155.334 156.139 154.88 156.037 154.422 156.056C153.659 156.029 152.808 156.106 152.284 156.665C151.636 157.357 151.804 158.522 152.369 159.287C152.935 160.053 153.792 160.529 154.581 161.053L154.701 161.133C152.136 160.856 149.259 160.653 146.161 160.544C146.195 160.299 146.213 160.053 146.217 159.805C146.488 144.921 147.23 108.908 148.205 104.629C149.436 99.2191 148.205 66.2814 148.205 66.2814C148.205 66.2814 148.075 62.623 148.252 57.9874C149.977 58.2376 151.721 58.3273 153.462 58.2552ZM130.447 79.9527C131.209 79.3536 131.939 78.714 132.632 78.0367L133.421 83.2491L130.447 79.9527Z" fill="white"/>
<path d="M111.632 110.388C114.185 110.278 116.594 109.139 118.344 107.214C120.095 105.289 121.047 102.731 120.998 100.089C120.949 97.4462 119.902 94.9285 118.082 93.0745C116.261 91.2205 113.811 90.1777 111.257 90.1691H111.095C109.638 89.3887 108.016 88.9994 106.376 89.037C104.736 89.0745 103.132 89.5377 101.71 90.3839C99.7552 89.2008 97.4641 88.7567 95.228 89.1274C92.9919 89.4982 90.9495 90.6609 89.45 92.4168C87.9504 94.1727 87.0866 96.413 87.0062 98.7547C86.9257 101.097 87.6336 103.395 89.009 105.256C87.983 107.056 87.5211 109.141 87.6866 111.224C87.8521 113.307 88.637 115.286 89.9334 116.888C91.2298 118.491 92.974 119.639 94.9264 120.174C96.8788 120.71 98.9436 120.606 100.837 119.878C102.762 122.38 104.961 125.469 104.534 126.582C103.988 127.968 104.312 142.01 104.466 147.642C104.468 147.741 104.477 147.839 104.491 147.937C100.885 148.14 98.2774 148.731 98.2774 149.429C98.2774 150.311 102.293 151 107.247 151C112.201 151 116.217 150.297 116.217 149.429C116.217 149.102 115.648 148.796 114.658 148.546C114.919 148.382 115.164 148.193 115.389 147.981C115.602 147.802 115.757 147.559 115.833 147.286C115.868 147.15 115.856 147.005 115.8 146.876C115.743 146.747 115.646 146.643 115.523 146.58C115.239 146.468 114.934 146.671 114.704 146.874C114.474 147.077 114.209 147.319 113.905 147.275C114.061 147.129 114.178 146.944 114.244 146.738C114.31 146.531 114.322 146.311 114.28 146.098C114.267 146.01 114.232 145.928 114.178 145.859C114.019 145.686 113.731 145.759 113.544 145.897C112.941 146.336 112.773 147.183 112.77 147.957C112.739 147.677 112.739 147.393 112.77 147.113C112.78 146.972 112.758 146.83 112.704 146.7C112.651 146.57 112.568 146.455 112.463 146.365C112.319 146.287 112.159 146.248 111.997 146.253C111.862 146.233 111.725 146.242 111.595 146.281C111.465 146.32 111.344 146.386 111.24 146.477C111.14 146.618 111.088 146.789 111.094 146.963C111.099 147.138 111.16 147.305 111.268 147.439C111.493 147.7 111.758 147.919 112.053 148.087L112.096 148.116C111.186 148.016 110.168 147.94 109.076 147.901C109.076 147.813 109.093 147.722 109.096 147.631C109.19 142.175 109.454 128.968 109.798 127.4C110.236 125.416 109.798 113.34 109.798 113.34C109.798 113.34 109.753 111.998 109.815 110.297C110.417 110.386 111.025 110.417 111.632 110.388ZM103.482 118.348C103.751 118.128 104.01 117.893 104.255 117.645L104.54 119.555L103.482 118.348Z" fill="white"/>
<path d="M47.8244 187.998C74.237 187.998 95.6487 185.537 95.6487 182.501C95.6487 179.465 74.237 177.004 47.8244 177.004C21.4117 177.004 0 179.465 0 182.501C0 185.537 21.4117 187.998 47.8244 187.998Z" fill="white"/>
<path d="M31.0583 167.061C30.7843 167.036 30.5196 166.95 30.2842 166.811C30.0488 166.671 29.8486 166.482 29.6987 166.256C28.3392 164.243 24.7315 158.501 27.2653 157.708C27.6675 157.581 28.0776 157.478 28.493 157.401C30.751 157.011 33.0751 157.237 35.2106 158.053C37.3462 158.87 39.2108 160.246 40.6002 162.031C40.9705 162.498 41.3023 162.993 41.5924 163.512C41.7021 163.713 41.7646 163.936 41.7754 164.164C41.7862 164.392 41.7451 164.619 41.6549 164.83C41.5647 165.04 41.4277 165.228 41.254 165.38C41.0802 165.532 40.8741 165.644 40.6504 165.709C38.4149 166.354 34.2734 167.34 31.0583 167.061Z" fill="#EC4A42"/>
<path d="M28.5837 166.223L42.2301 163.812H62.6655L59.7452 168.21H31.3645L28.5837 166.223Z" fill="#2C395D"/>
<path d="M38.8895 24.5466C40.4277 23.8036 42.433 24.5466 44.2639 24.7212C46.6366 24.9403 48.9875 24.1292 51.3757 24.1914C53.5495 24.2534 55.6247 25.0681 57.2109 26.4824C58.534 27.7092 59.3043 29.3764 59.3594 31.1325C59.4185 32.177 59.1579 33.2155 58.609 34.1221C57.4694 35.9247 54.8725 37.1472 52.1791 37.3514C49.5266 37.5328 46.8856 36.8739 44.6686 35.4777C42.9 34.3352 41.667 32.8138 40.1692 31.4936C39.1043 30.5435 36.3019 29.3447 36.2801 28.1104C36.2646 27.255 37.918 25.0084 38.8895 24.5466Z" fill="#293556"/>
<path opacity="0.1" d="M38.8895 24.5466C40.4277 23.8036 42.433 24.5466 44.2639 24.7212C46.6366 24.9403 48.9875 24.1292 51.3757 24.1914C53.5495 24.2534 55.6247 25.0681 57.2109 26.4824C58.534 27.7092 59.3043 29.3764 59.3594 31.1325C59.4185 32.177 59.1579 33.2155 58.609 34.1221C57.4694 35.9247 54.8725 37.1472 52.1791 37.3514C49.5266 37.5328 46.8856 36.8739 44.6686 35.4777C42.9 34.3352 41.667 32.8138 40.1692 31.4936C39.1043 30.5435 36.3019 29.3447 36.2801 28.1104C36.2646 27.255 37.918 25.0084 38.8895 24.5466Z" fill="black"/>
<path d="M44.1995 155.175L43.9763 159.415C46.1467 159.27 48.3238 159.232 50.4985 159.3C50.6758 158.664 50.4985 157.994 50.3541 157.346C50.0887 156.098 49.9993 154.824 50.0882 153.555C50.1145 153.207 46.0508 152.849 45.6405 152.831C45.1416 152.813 44.623 152.749 44.3833 153.231C44.1175 153.758 44.2291 154.6 44.1995 155.175Z" fill="#293556"/>
<path d="M39.7618 156.274L39.5785 160.514C41.3871 160.37 43.2013 160.331 45.0136 160.399C45.1614 159.763 45.0136 159.094 44.8932 158.446C44.6742 157.197 44.6006 155.923 44.6743 154.654C44.6934 154.303 41.3081 153.949 40.966 153.931C40.5473 153.912 40.1176 153.849 39.9178 154.33C39.6934 154.857 39.7865 155.699 39.7618 156.274Z" fill="#293556"/>
<path d="M48.6115 155.077C48.3109 155.186 48.036 155.355 47.8036 155.573L46.2134 156.886C45.6791 157.329 44.9762 157.797 44.3369 157.514C44.0682 157.349 43.8186 157.155 43.5927 156.936C43.4776 156.829 43.3304 156.762 43.1733 156.744C43.0162 156.727 42.8576 156.76 42.7212 156.839C42.5786 156.987 42.4921 157.179 42.4763 157.383C41.9574 160.171 41.7261 163.005 41.7861 165.839C42.2812 166.032 42.8039 166.147 43.335 166.179C43.3942 166.187 43.4547 166.176 43.5068 166.147C43.599 166.072 43.5481 165.927 43.5354 165.811C43.4909 165.406 44.0634 165.167 44.4355 165.343C44.7827 165.564 45.0414 165.897 45.167 166.285C45.2207 166.442 45.315 166.582 45.4405 166.691C45.555 166.763 45.6843 166.809 45.819 166.826C46.5418 166.95 47.2736 167.016 48.0072 167.024C51.3997 167.139 54.7923 167.139 58.1848 167.024C58.5381 167.03 58.8901 166.981 59.228 166.879C59.5465 166.751 59.8259 166.544 60.0389 166.278C60.2519 166.011 60.3911 165.694 60.443 165.359C60.5343 164.68 60.3615 163.991 59.9595 163.433C59.6706 163.016 59.2887 162.67 58.8432 162.421C58.506 162.245 58.1537 162.098 57.7904 161.982L56.2002 161.416C55.0393 161.008 53.8371 160.571 52.972 159.707C52.4924 159.184 52.084 158.601 51.757 157.973C51.1559 156.965 50.2176 154.612 48.6115 155.077Z" fill="#293556"/>
<path opacity="0.1" d="M48.6115 155.077C48.3109 155.186 48.036 155.355 47.8036 155.573L46.2134 156.886C45.6791 157.329 44.9762 157.797 44.3369 157.514C44.0682 157.349 43.8186 157.155 43.5927 156.936C43.4776 156.829 43.3304 156.762 43.1733 156.744C43.0162 156.727 42.8576 156.76 42.7212 156.839C42.5786 156.987 42.4921 157.179 42.4763 157.383C41.9574 160.171 41.7261 163.005 41.7861 165.839C42.2812 166.032 42.8039 166.147 43.335 166.179C43.3942 166.187 43.4547 166.176 43.5068 166.147C43.599 166.072 43.5481 165.927 43.5354 165.811C43.4909 165.406 44.0634 165.167 44.4355 165.343C44.7827 165.564 45.0414 165.897 45.167 166.285C45.2207 166.442 45.315 166.582 45.4405 166.691C45.555 166.763 45.6843 166.809 45.819 166.826C46.5418 166.95 47.2736 167.016 48.0072 167.024C51.3997 167.139 54.7923 167.139 58.1848 167.024C58.5381 167.03 58.8901 166.981 59.228 166.879C59.5465 166.751 59.8259 166.544 60.0389 166.278C60.2519 166.011 60.3911 165.694 60.443 165.359C60.5343 164.68 60.3615 163.991 59.9595 163.433C59.6706 163.016 59.2887 162.67 58.8432 162.421C58.506 162.245 58.1537 162.098 57.7904 161.982L56.2002 161.416C55.0393 161.008 53.8371 160.571 52.972 159.707C52.4924 159.184 52.084 158.601 51.757 157.973C51.1559 156.965 50.2176 154.612 48.6115 155.077Z" fill="black"/>
<path d="M63.7657 86.4463C63.7657 87.3183 63.7471 88.1913 63.7099 89.0653C63.5532 94.414 63.0664 99.7484 62.252 105.039C62.0659 106.228 61.8643 107.413 61.5696 108.578C61.1446 110.243 60.518 111.866 60.3288 113.577C60.0714 116.022 60.7352 118.543 60.1737 120.939C59.8853 122.161 59.2835 123.301 58.933 124.512C58.7261 125.234 58.5624 125.968 58.4429 126.709C58.1306 128.42 57.8204 130.128 57.5123 131.834C57.4782 132.008 57.4472 132.182 57.4162 132.356C57.0269 134.369 56.3414 136.315 55.3814 138.132C54.8458 139.267 54.43 140.452 54.1406 141.671C53.5885 143.694 53.0363 145.719 52.4842 147.746C51.7367 150.481 50.986 153.339 51.5537 156.116C50.4205 156.047 49.2955 155.881 48.1912 155.621C46.7809 155.285 45.4144 154.791 44.1185 154.148C43.8269 149.433 44.0409 144.705 44.2519 139.984C44.3883 136.992 44.5248 133.994 45.0366 131.042C45.5919 127.824 46.3518 124.753 47.0156 121.553C48.0113 116.765 49.0132 111.936 48.9171 107.05C48.7992 100.721 48.9667 94.2757 51.7677 88.5825C52.041 87.9053 52.4877 87.3094 53.0643 86.8528C53.6309 86.5155 54.2667 86.3067 54.9254 86.2416C57.1555 85.8691 59.4169 85.7095 61.6782 85.7648C62.4188 85.8269 63.134 86.0604 63.7657 86.4463Z" fill="#2C395D"/>
<path opacity="0.1" d="M63.7657 86.4343C63.7657 87.2977 57.0554 86.6373 57.0244 87.5007C48.7822 86.5676 52.6428 88.4398 52.28 88.6913C51.4986 89.2275 55.2506 88.149 54.4692 88.6913C53.7901 89.1609 52.7358 90.9847 52.035 91.4179C50.4008 92.4631 55.8491 95.6804 54.6367 97.174C53.5358 98.5252 53.2785 100.367 53.4242 102.082C53.57 103.797 54.0816 105.466 54.3545 107.171C54.8616 110.404 54.5081 113.709 53.3281 116.769C52.6211 118.602 51.6288 120.311 50.7264 122.059C49.7404 123.982 47.917 125.894 48.1341 128.039C48.6333 132.868 47.7713 137.733 47.5387 142.581C47.4488 144.435 47.4519 146.325 47.979 148.11C48.1775 148.791 48.4535 149.452 48.5992 150.145C48.9682 151.754 48.6767 153.42 48.1899 155.017C46.7801 154.684 45.414 154.194 44.1184 153.557C43.8269 148.882 44.0409 144.195 44.2518 139.515C44.3882 136.549 44.5246 133.577 45.0363 130.65C45.5913 127.46 46.3511 124.416 47.0147 121.244C48.01 116.496 49.0116 111.71 48.9155 106.865C48.7977 100.591 48.9651 94.202 51.7652 88.558C52.0385 87.8867 52.4851 87.2959 53.0614 86.8433C53.6279 86.5089 54.2634 86.3019 54.9219 86.2374C57.1514 85.8681 59.4121 85.7099 61.6726 85.7648C62.4146 85.8235 63.1318 86.053 63.7657 86.4343Z" fill="black"/>
<path d="M63.4395 81.4819C63.4395 83.0392 64.2978 86.4849 63.1222 87.4843C62.3395 88.1557 61.3725 88.5634 60.5323 89.1612C59.7708 89.7038 59.121 90.3874 58.3625 90.9484C57.7007 91.4236 56.9633 91.7792 56.2833 92.2298C54.6877 93.2875 53.9896 95.2096 52.805 96.7178C51.7352 98.0851 51.4844 99.949 51.6264 101.684C51.7684 103.419 52.2671 105.108 52.533 106.834C53.0251 110.105 52.6807 113.449 51.5327 116.546C50.8407 118.401 49.8766 120.13 48.9972 121.899C48.0362 123.845 46.2562 125.78 46.4708 127.95C46.9573 132.837 46.1142 137.76 45.8906 142.665C45.8029 144.541 45.8059 146.454 46.3197 148.259C46.5131 148.949 46.779 149.618 46.9241 150.32C47.3442 152.242 46.8727 154.25 46.2532 156.117C44.1196 155.736 41.9619 155.359 39.8042 155.522C37.9093 155.666 36.0266 156.221 34.1409 155.991C33.9142 150.828 34.3796 145.66 34.839 140.513C34.9296 139.461 35.0263 138.41 35.12 137.355C35.4826 133.324 35.8423 129.29 36.0568 125.243C36.1112 124.222 35.7546 123.14 36.0387 122.156C36.629 120.094 37.2193 118.041 37.8096 115.997C38.1264 114.975 38.3629 113.928 38.5168 112.867C38.7827 110.675 38.3415 108.465 37.9124 106.304C37.308 103.345 36.7035 100.381 36.0991 97.4137C35.8997 96.4297 35.6972 95.4426 35.4222 94.4708C35.2177 93.8285 35.0473 93.1756 34.9115 92.5149C34.8037 91.5849 34.7472 90.6494 34.7422 89.713C34.6516 88.0974 34.2799 86.5156 34.162 84.9031C34.0955 84.1283 34.1198 83.3483 34.2345 82.5794C34.3508 81.7455 34.6425 80.9467 35.0898 80.2373C39.5344 78.4394 44.1475 77.1041 48.8582 76.252C49.953 76.024 51.0653 75.8927 52.1824 75.8596C53.4553 75.8914 54.7232 76.0339 55.9721 76.2857C57.7188 76.5923 59.4988 76.8988 61.1096 77.6959C61.8811 78.0642 62.5861 78.5616 63.1948 79.1674C64.0047 79.992 63.497 78.0883 63.7569 79.2226C63.8294 79.615 63.4335 81.0895 63.4395 81.4819Z" fill="#2C395D"/>
<path d="M43.8121 156.175C43.5293 156.286 43.2708 156.456 43.0519 156.674L41.5553 157.987C41.0494 158.43 40.3879 158.898 39.7893 158.615C39.5359 158.451 39.301 158.257 39.0889 158.037C38.9808 157.93 38.8423 157.862 38.6944 157.845C38.5464 157.827 38.397 157.86 38.2687 157.94C38.1345 158.088 38.0531 158.28 38.0383 158.483C37.5469 161.27 37.3292 164.103 37.3887 166.937C37.8537 167.129 38.3446 167.244 38.8435 167.276C38.8992 167.285 38.9562 167.274 39.0051 167.245C39.0949 167.169 39.047 167.025 39.035 166.909C38.9931 166.504 39.5319 166.262 39.8791 166.441C40.2059 166.661 40.4493 166.995 40.5675 167.383C40.6195 167.539 40.708 167.678 40.8249 167.788C40.9327 167.86 41.0544 167.906 41.1811 167.923C41.8624 168.047 42.552 168.113 43.2434 168.121C46.4342 168.237 49.6339 168.24 52.8216 168.121C53.155 168.127 53.4873 168.078 53.8064 167.976C54.106 167.848 54.3686 167.64 54.5685 167.373C54.7684 167.106 54.8988 166.789 54.9468 166.453C55.0338 165.775 54.8711 165.088 54.4918 164.532C54.2203 164.115 53.8621 163.77 53.4442 163.52C53.1256 163.344 52.7931 163.197 52.4505 163.081L50.9539 162.515C49.8644 162.104 48.733 161.671 47.9158 160.804C47.4636 160.281 47.0782 159.698 46.7694 159.07C46.2037 158.066 45.3207 155.713 43.8121 156.175Z" fill="#293556"/>
<path d="M59.3536 32.4615C59.2471 32.9522 59.0237 33.4098 58.7023 33.7955C58.0292 34.7304 57.2845 35.7184 56.1938 36.0893C55.5866 36.2617 54.9524 36.3188 54.3241 36.2576C48.895 35.985 43.7093 33.92 39.5785 30.3859C41.5323 29.0956 42.5731 26.7456 42.8286 24.4206C42.9755 22.6135 42.8706 20.7947 42.517 19.0164C42.4267 18.4897 42.3332 17.9661 42.2397 17.4581C42.0652 16.5044 41.6165 15.7658 42.704 15.5008C43.5485 15.292 44.6952 15.4385 45.5584 15.5008C47.4561 15.6068 49.3944 16.0182 50.9369 17.1807C51.3594 17.4795 51.7133 17.8653 51.9746 18.312C52.6383 19.5587 52.0992 21.0266 51.9434 22.4572C51.9082 22.7811 51.9009 23.1075 51.9216 23.4327C52.0431 25.019 53.1088 26.3872 54.3335 27.4001C55.5581 28.413 56.9729 29.1922 58.1664 30.2363C58.8332 30.7973 59.472 31.5858 59.3536 32.4615Z" fill="#FBBEBE"/>
<path opacity="0.1" d="M51.3311 22.8384C50.6805 23.0054 50.0144 23.0893 49.3462 23.0884C47.9755 23.0892 46.6232 22.7401 45.3961 22.0685C44.169 21.397 43.1006 20.4214 42.275 19.2187C42.1881 18.6626 42.0983 18.1098 42.0085 17.5734C41.8409 16.5665 41.4098 15.7866 42.4546 15.5069C43.2659 15.2864 44.3676 15.4411 45.1969 15.5069C47.0201 15.6188 48.8822 16.0531 50.3641 17.2805C50.7701 17.596 51.11 18.0033 51.361 18.475C51.9987 19.7748 51.4808 21.3247 51.3311 22.8384Z" fill="black"/>
<path d="M49.473 21.9873C54.3305 21.9873 58.2683 18.0495 58.2683 13.192C58.2683 8.33451 54.3305 4.39673 49.473 4.39673C44.6155 4.39673 40.6777 8.33451 40.6777 13.192C40.6777 18.0495 44.6155 21.9873 49.473 21.9873Z" fill="#FBBEBE"/>
<path opacity="0.1" d="M64.8652 79.9343C64.8089 80.0546 64.368 82.104 64.2992 82.2214C61.2161 81.6195 59.2963 81.5743 56.1695 81.6195C55.3761 81.6118 54.5837 81.6753 53.8025 81.8091C53.1459 81.9355 52.5049 82.1431 51.842 82.2424C48.2711 82.7721 44.8911 80.0847 41.2858 80.3495C40.082 80.4368 38.9313 80.8521 37.8026 81.2523C36.5518 81.7098 35.3011 82.0588 34.0817 82.4561C34.202 81.6375 34.5037 80.8534 34.9665 80.157C39.5652 78.3921 44.3383 77.0813 49.2123 76.2448C50.3451 76.021 51.4959 75.8921 52.6518 75.8596C53.9688 75.8908 55.2807 76.0307 56.5728 76.2779C58.3801 76.5788 60.2218 76.8798 61.8884 77.6622C62.6867 78.0237 63.4161 78.512 64.0459 79.1067C64.8651 79.9343 64.6119 78.8208 64.8652 79.9343Z" fill="black"/>
<path d="M46.5798 31.6379C46.3897 30.7214 45.7613 29.9913 45.142 29.3009C43.973 27.9975 42.7652 26.7276 41.5185 25.4914C41.1157 25.0473 40.6385 24.6762 40.1083 24.3947C39.8413 24.2563 39.5444 24.1854 39.2435 24.1881C38.9426 24.1907 38.6469 24.2669 38.3824 24.41C37.9103 24.7154 37.6712 25.2531 37.2941 25.6625C36.4787 26.5515 35.0593 26.7623 34.3726 27.7551C34.2209 28.0333 34.0455 28.298 33.8484 28.5463C33.5535 28.7969 33.2005 28.9701 32.8214 29.0504L28.4928 30.3426C27.9839 30.4923 27.4198 30.6878 27.1777 31.1583C27.0732 31.4086 27.0081 31.6734 26.9845 31.9434C26.6412 33.8955 24.9153 35.2519 23.3978 36.5258C22.8705 36.9688 22.3371 37.4576 22.1133 38.1052C21.8895 38.7529 22.006 39.4402 22.144 40.1001C22.4904 41.7773 22.9962 43.4605 23.9833 44.8688C24.6332 45.822 25.4855 46.6407 26.0219 47.6611C26.4758 48.6349 26.7618 49.678 26.868 50.7465C27.1746 52.7536 27.334 54.776 27.5057 56.7984C27.6559 58.5763 27.4413 60.5742 27.9594 62.2972C28.5909 64.3899 30.8441 65.5813 31.8435 67.5273C32.2174 68.3454 32.4764 69.2109 32.613 70.0995L33.5725 74.9447C33.7465 75.679 33.8421 76.4296 33.8576 77.1839C33.8331 78.9649 32.9165 80.7001 33.2046 82.4567C34.8263 81.8457 36.3898 81.4272 38.0084 80.8193C39.1181 80.4008 40.2463 79.9761 41.4296 79.8875C44.9612 79.6248 48.2751 82.3498 51.776 81.8121C52.4259 81.7144 53.0543 81.5066 53.6981 81.3753C54.464 81.2388 55.2407 81.1724 56.0187 81.1767C59.105 81.1301 62.1876 81.4076 65.2155 82.0046C65.8286 80.9812 65.9298 79.7256 65.7796 78.5434C65.6294 77.3611 65.2462 76.2247 64.9458 75.0699C64.1531 72.0404 63.9225 68.892 64.2652 65.7799C64.3815 64.9974 64.4522 64.209 64.4767 63.4184C64.4767 60.4673 62.6803 57.7026 62.8458 54.7546C63.0083 51.8555 66.3314 50.2333 67.7048 47.6672C68.0206 47.1555 68.1794 46.563 68.1616 45.9625C68.0941 45.3515 67.7079 44.8016 67.4595 44.2273C66.8464 42.819 67.0733 41.1968 66.7238 39.706C66.5981 39.1836 66.4172 38.6796 66.2885 38.1541C65.9819 36.7061 66.2609 35.1664 65.89 33.7306C65.6018 32.6186 64.9335 31.644 64.2223 30.7428C63.0206 29.2154 61.6165 27.7887 59.863 26.9456C58.1095 26.1024 55.9513 25.9221 54.2376 26.8447C53.9711 26.9771 53.7352 27.1634 53.5448 27.3916C53.3656 27.6639 53.2368 27.966 53.1647 28.2836C52.5538 30.3215 51.7093 32.2825 50.6478 34.1277C50.2507 34.1876 49.8453 34.1593 49.4605 34.0447C49.0757 33.9301 48.7212 33.732 48.4222 33.4648C47.803 32.9393 46.7423 32.42 46.5798 31.6379Z" fill="#EC4A42"/>
<path d="M44.8176 16.048C44.988 15.6411 45.0639 15.2015 45.04 14.7616C45.0157 14.3208 45.1371 13.8842 45.3859 13.5181C45.7441 13.0862 46.3866 12.9698 46.7294 12.5318C47.1216 12.0326 46.9888 11.3251 47.1062 10.6941C47.2103 10.1935 47.4791 9.7414 47.8704 9.40877C48.2618 9.07614 48.7534 8.88183 49.2682 8.85639C50.0341 8.83495 50.7538 9.19637 51.5074 9.34339C52.4864 9.53635 53.4964 9.36177 54.4785 9.19025C55.2105 9.06161 56.0228 8.89927 56.4799 8.32958C56.758 7.94438 56.94 7.49935 57.0111 7.03093C57.1748 6.2989 57.2984 5.48418 56.9185 4.83791C56.5386 4.19165 55.7356 3.87617 55.3124 3.24829C54.9449 2.70003 54.914 1.9772 54.5403 1.43201C53.9597 0.580533 52.749 0.430451 51.7205 0.559092C50.692 0.687732 49.6481 1.0124 48.6319 0.794933C47.5139 0.55603 46.4082 -0.316885 45.355 0.121104C44.5798 0.445768 44.2555 1.33093 43.7798 2.02008C43.3685 2.61457 42.8073 3.09188 42.1522 3.4045C41.1453 3.88537 39.9655 3.95275 38.9988 4.51019C38.5621 4.76758 38.1865 5.11532 37.8976 5.52972C37.6087 5.94411 37.4133 6.41541 37.3248 6.91147C37.2797 7.09241 37.2861 7.28219 37.3433 7.45972C37.4128 7.59535 37.4945 7.72451 37.5873 7.84565C37.9888 8.4766 37.7294 9.31889 37.3402 9.95596C36.9511 10.593 36.4322 11.1811 36.3087 11.9315C36.1851 12.6819 36.4785 13.4139 36.8584 14.0602C37.2853 14.676 37.6663 15.3219 37.9981 15.9929C38.3286 16.7923 38.3903 17.6774 38.7208 18.4738C38.985 19.0891 39.4 19.6294 39.928 20.0455C40.456 20.4616 41.0803 20.7404 41.7445 20.8567C41.8685 20.8901 41.9982 20.8975 42.1253 20.8785C42.2523 20.8596 42.3741 20.8146 42.4827 20.7464C42.6282 20.6066 42.7246 20.424 42.7575 20.2257C42.8469 19.8875 42.9058 19.5421 42.9336 19.1936C42.9861 18.5075 42.9336 17.7142 43.2424 17.0802C43.6254 16.2869 44.4037 16.8229 44.8176 16.048Z" fill="#2C395D"/>
<path opacity="0.1" d="M56.9149 5.19287C56.53 4.55706 55.726 4.25115 55.3008 3.63634C54.9314 3.09951 54.9003 2.39173 54.5247 1.85789C54.2444 1.47867 53.8324 1.20939 53.3638 1.09912C53.7394 1.63296 53.7673 2.34074 54.1398 2.87757C54.562 3.49239 55.3659 3.79529 55.7509 4.4341C56.1358 5.0729 56.0085 5.86466 55.844 6.58144C55.7729 7.03973 55.5911 7.47538 55.3132 7.85305C54.8351 8.40788 54.0343 8.56983 53.2986 8.69579C52.3115 8.86374 51.2965 9.03169 50.3125 8.84575C49.5582 8.69879 48.8349 8.3479 48.062 8.36889C47.5497 8.39586 47.061 8.58534 46.6715 8.90796C46.282 9.23058 46.0136 9.66833 45.9078 10.1533C45.7898 10.7532 45.9078 11.4549 45.5291 11.9528C45.1814 12.3817 44.5357 12.4956 44.1788 12.9155C43.9283 13.275 43.8052 13.7033 43.828 14.1361C43.8534 14.5657 43.778 14.9952 43.6076 15.3927C43.1886 16.1545 42.4063 15.6267 42.0121 16.4034C41.7017 17.0242 41.7545 17.801 41.7017 18.4728C41.6738 18.8151 41.6146 19.1543 41.5248 19.4865C41.4915 19.68 41.3959 19.8584 41.2516 19.9963C41.1425 20.0631 41.0201 20.1071 40.8924 20.1257C40.7647 20.1443 40.6344 20.137 40.5097 20.1043C40.1887 20.05 39.8758 19.9573 39.5785 19.8284C40.1558 20.3645 40.8852 20.7226 41.6738 20.8571C41.7984 20.8898 41.9287 20.8971 42.0565 20.8785C42.1842 20.8599 42.3065 20.8158 42.4156 20.7491C42.5619 20.6122 42.6588 20.4334 42.6919 20.2393C42.7817 19.9081 42.8409 19.5699 42.8688 19.2286C42.9216 18.5568 42.8688 17.78 43.1793 17.1592C43.5766 16.3824 44.3588 16.9073 44.7748 16.1485C44.946 15.7501 45.0224 15.3196 44.9983 14.8889C44.9739 14.4573 45.0959 14.0298 45.3459 13.6713C45.706 13.2484 46.3516 13.1344 46.6962 12.7056C47.0904 12.2167 46.9569 11.5239 47.0749 10.9061C47.1821 10.4188 47.4536 9.9796 47.8468 9.65725C48.24 9.3349 48.7327 9.1476 49.2478 9.12466C50.0176 9.10067 50.7408 9.45456 51.4982 9.59852C52.4822 9.78746 53.4973 9.61651 54.4844 9.44856C55.22 9.3226 56.0364 9.16365 56.4958 8.60582C56.7753 8.22865 56.9582 7.79288 57.0297 7.33421C57.1725 6.62343 57.2967 5.82567 56.9149 5.19287Z" fill="black"/>
<path d="M37.3789 173.708C37.3789 176.744 35.4083 179.205 32.9799 179.205C30.5516 179.205 28.5837 176.744 28.5837 173.708V173.666C28.6033 170.657 30.5655 168.211 32.9799 168.211C34.4732 168.211 35.7907 169.137 36.5834 170.564C37.1109 171.513 37.3861 172.601 37.3789 173.708Z" fill="#2C395D"/>
<path d="M75.8593 175.911C75.8593 181.978 72.9037 186.899 69.2599 186.899C65.6161 186.899 62.6664 181.978 62.6664 175.911C62.6664 172.477 63.6075 169.42 65.0838 167.409C66.2249 165.848 67.6718 164.911 69.2599 164.911C69.4784 164.911 69.6966 164.927 69.9128 164.961C71.2215 165.177 72.4243 166.029 73.3919 167.334C73.5282 167.513 73.6558 167.7 73.7742 167.893C75.0564 169.91 75.8593 172.758 75.8593 175.911Z" fill="#2C395D"/>
<path d="M71.4614 163.219L65.4403 163.812L64.6665 157.474L64.6143 157.059L63.5213 148.127L63.4721 147.713L57.9423 102.528L57.8225 101.566L54.5249 74.5965L54.445 73.9524L54.1011 71.1342L53.8708 69.2625H58.6914L58.9524 71.2007L58.9954 71.5092L59.1152 72.377L63.2511 102.815L63.3616 103.631L69.2599 147.026L70.5526 156.536L71.4614 163.219Z" fill="#2C395D"/>
<path opacity="0.1" d="M68.6667 164.911C68.8661 164.911 69.0652 164.927 69.2624 164.96L69.1121 165.074C68.632 165.475 68.2549 166.012 68.0192 166.631C67.7835 167.249 67.6977 167.927 67.7706 168.595L68.6238 177.734C68.6264 177.781 68.6264 177.828 68.6238 177.876C68.613 178.21 68.4948 178.528 68.2913 178.771C68.0878 179.014 67.8128 179.165 67.5175 179.197C67.2222 179.229 66.9267 179.139 66.686 178.944C66.4453 178.748 66.2758 178.461 66.209 178.136C65.8575 176.041 65.1921 171.762 64.8916 167.897C64.8755 167.691 64.8647 167.498 64.8647 167.314C65.8977 165.815 67.2178 164.911 68.6667 164.911Z" fill="black"/>
<path d="M68.8485 162.762C68.8485 162.762 64.463 162.459 64.8946 167.829C65.2053 171.7 65.8872 175.983 66.2447 178.08C66.3051 178.432 66.487 178.744 66.7522 178.95C67.0174 179.157 67.3451 179.242 67.6662 179.188C67.9859 179.135 68.2745 178.948 68.4717 178.666C68.669 178.384 68.7596 178.029 68.7248 177.675L67.8504 168.522C67.775 167.852 67.8625 167.173 68.1041 166.552C68.3457 165.932 68.7326 165.394 69.2252 164.993C70.2618 164.19 71.6448 164.142 72.7997 167.662L73.5915 167.901C73.5915 167.901 74.6034 162.126 68.8485 162.762Z" fill="#283354"/>
<path opacity="0.1" d="M63.7654 103.27C63.5295 103.318 63.2898 103.342 63.0495 103.344H61.3731C60.4277 103.341 59.5164 102.98 58.8129 102.332C58.1093 101.683 57.6626 100.791 57.5579 99.8257L54.9926 75.8407C54.9267 75.218 55.0059 74.5881 55.2235 74.0029C55.4411 73.4177 55.791 72.8941 56.2443 72.4751C56.6976 72.0561 57.2413 71.7538 57.8307 71.593C58.42 71.4323 59.0381 71.4178 59.634 71.5506L63.7654 103.27Z" fill="black"/>
<path opacity="0.1" d="M63.7654 103.249C63.4887 103.313 63.2056 103.344 62.9216 103.344H61.2035C60.6733 103.343 60.1488 103.234 59.6621 103.023C59.1754 102.813 58.7366 102.505 58.3726 102.119L58.2534 101.142L54.9701 73.8337C55.3394 72.9747 56.0027 72.2761 56.8406 71.8634C57.6785 71.4508 58.6359 71.3514 59.5405 71.583L63.6553 102.41L63.7654 103.249Z" fill="black"/>
<path d="M54.9944 75.8564C55.624 81.6233 56.9532 93.8155 57.6102 99.8335C57.7151 100.798 58.1703 101.69 58.8882 102.338C59.6062 102.986 60.5364 103.344 61.5005 103.343H63.2068C64.0216 103.354 64.8187 103.104 65.483 102.629C66.1473 102.154 66.6444 101.478 66.9024 100.7C67.0079 100.37 67.0622 100.025 67.0636 99.6773C67.0636 97.8398 65.1048 81.1946 64.4965 76.0616C64.4385 75.553 64.2813 75.0609 64.0338 74.6137C63.7864 74.1664 63.4537 73.7728 63.0547 73.4554C62.2546 72.8164 61.3865 72.2689 60.4663 71.823C57.7318 70.5428 54.6659 72.8367 54.9944 75.8564Z" fill="#BF3A34"/>
<path opacity="0.1" d="M36.2796 170.582L35.1464 170.527C34.1382 170.476 33.1381 170.752 32.2652 171.325L28.7207 173.629C28.675 173.656 28.6267 173.687 28.5837 173.708C28.6025 170.676 30.4903 168.211 32.813 168.211C34.2469 168.211 35.517 169.145 36.2796 170.582Z" fill="black"/>
<path opacity="0.1" d="M71.4614 157.744L65.019 158.314L64.9619 157.86L63.7655 148.066L70.0466 147.32L71.4614 157.744Z" fill="black"/>
<path d="M65.5239 157.559C66.4685 171.429 56.8048 171.173 56.8048 171.173L35.7876 170.267C34.6353 170.217 33.4928 170.499 32.4938 171.078L28.4455 173.423C28.0797 173.635 27.659 173.732 27.2379 173.7C26.8168 173.669 26.4148 173.511 26.084 173.248C25.654 172.904 25.374 172.406 25.3036 171.859C25.2331 171.312 25.3778 170.758 25.7068 170.316L27.4181 168.023C27.7723 167.549 28.2376 167.171 28.7727 166.921C29.3078 166.671 29.8961 166.559 30.485 166.593L52.4775 167.854C61.3714 168.014 64.3892 148.02 64.3892 148.02L70.1733 147.32L71.4614 157.014L65.5331 157.547L65.5239 157.559Z" fill="#283354"/>
<path opacity="0.1" d="M59.3679 70.3619L54.12 70.3241L53.8708 69.2625H59.0856L59.3679 70.3619Z" fill="black"/>
<path d="M36.4806 67.0645L76.8401 68.0075C77.1672 68.0185 77.4769 68.1476 77.7041 68.3675C77.9312 68.5873 78.058 68.8808 78.0578 69.1862C78.0578 69.3421 78.0246 69.4964 77.9601 69.6402C77.8957 69.7839 77.8012 69.9143 77.6822 70.0238C77.5633 70.1332 77.4222 70.2194 77.2671 70.2775C77.1121 70.3356 76.9463 70.3643 76.7793 70.3621L36.4228 69.8366C36.0917 69.8321 35.7758 69.7063 35.5434 69.4863C35.311 69.2662 35.1808 68.9697 35.1808 68.6608V68.2404C35.1807 68.0828 35.2146 67.9269 35.2804 67.7817C35.3462 67.6366 35.4425 67.5053 35.5638 67.3956C35.685 67.2859 35.8287 67.2001 35.9862 67.1432C36.1437 67.0864 36.3118 67.0596 36.4806 67.0645Z" fill="#2C395D"/>
<path d="M39.1329 63.6758C40.5831 63.9572 42.187 63.8823 43.4018 64.6934C44.4847 65.4147 45.0089 66.7166 45.0685 67.9856C45.1282 69.2545 44.7798 70.4846 44.4408 71.7027C44.334 72.0858 44.1269 72.5497 43.7063 72.5617C43.2856 72.5736 43.0785 72.1666 42.7426 71.9631C42.0207 71.5441 41.0005 72.1636 40.2723 71.7566C40.0658 71.6097 39.8745 71.4444 39.701 71.2628C39.4152 71.0245 39.0606 70.8741 38.6836 70.8314C38.3067 70.7887 37.925 70.8556 37.5886 71.0233C37.6821 70.5489 37.6629 70.0605 37.5325 69.594C37.4021 69.1275 37.1638 68.6948 36.835 68.3277C36.5062 67.9605 36.0954 67.6682 35.6327 67.4723C35.1699 67.2764 34.667 67.1818 34.1609 67.1954C33.5959 67.2134 32.9901 67.3541 32.4973 67.0937C31.7031 66.6807 31.7691 65.5434 32.1834 64.7832C32.7861 63.7147 33.2443 62.6672 34.6129 62.6672C36.1823 62.6732 37.6294 63.3855 39.1329 63.6758Z" fill="#FBBEBE"/>
<path d="M65.9827 64.993L65.9639 67.933C65.9639 69.0401 65.9639 70.2016 66.5335 71.1664C66.8293 71.6685 67.339 72.1222 67.9433 72.1101C68.1698 72.1101 68.3901 72.0375 68.6167 72.0466C69.2744 72.0708 69.8754 72.7362 70.4891 72.5154C70.6968 72.4398 70.8636 72.2704 71.0776 72.213C71.3922 72.1222 71.7541 72.2916 72.072 72.1978C72.3898 72.1041 72.5786 71.7532 72.7013 71.4447C73.3307 69.9686 73.9601 68.3414 73.5038 66.8109C73.2504 66.1216 72.8885 65.4739 72.4307 64.8902L70.3915 61.9895C70.3103 61.8516 70.1959 61.7344 70.058 61.6477C69.9156 61.5838 69.7583 61.5567 69.6017 61.5691C68.5884 61.5691 67.6411 62.0288 66.7348 62.4765C65.8285 62.9241 65.989 64.1491 65.9827 64.993Z" fill="#FBBEBE"/>
<path d="M68.6478 48.5374C68.7552 49.1704 68.9378 49.7886 69.1918 50.379C69.5325 51.0522 70.1363 51.6186 70.2439 52.3659C70.3724 53.2556 69.7866 54.2817 70.3455 54.9845C70.5726 55.2811 70.9433 55.4205 71.1824 55.7052C71.7562 56.408 71.2093 57.443 71.293 58.3415C71.3677 59.163 71.9864 59.8451 72.1568 60.6547C72.3271 61.4643 72.0402 62.4667 72.5603 63.1487C72.0312 62.3213 70.8715 62.1582 69.8972 62.3184C69.0973 62.4564 68.3338 62.7532 67.6523 63.1909C66.9708 63.6287 66.3853 64.1983 65.9309 64.8658C66.0765 63.6905 65.9498 62.4976 65.5603 61.3783C65.2106 60.3759 64.6487 59.4032 64.6965 58.3445C64.7264 57.7188 64.9715 57.1049 64.9117 56.4792C64.8191 55.5005 64.015 54.7562 63.3216 54.0652C62.4788 53.2319 61.6568 52.2414 61.5731 51.0611C61.4954 49.9668 62.0783 48.9318 62.7448 48.054C63.2529 47.3147 63.9298 46.705 64.7204 46.2746C65.2435 46.0196 66.8276 44.952 67.1743 45.0884C67.9185 45.3672 68.4834 47.8612 68.6478 48.5374Z" fill="#EC4A42"/>
<path d="M23.4398 39.5786C22.626 39.8559 21.9434 40.4337 21.5262 41.1983C21.1175 41.9587 20.7814 42.7573 20.5227 43.5833C19.8881 45.3395 19.1015 47.0345 18.1721 48.6484C17.4669 49.8777 16.6653 51.058 16.2856 52.4133C15.9451 53.5997 15.921 54.8905 15.3605 55.9847C15.0862 56.5195 14.6944 56.9928 14.4865 57.5583C14.2153 58.2898 14.2846 59.095 14.3599 59.8818L14.5558 61.9595C14.579 62.6423 14.7304 63.3142 15.0018 63.9388C15.3785 64.6733 16.0656 65.1682 16.7286 65.663L19.7934 67.8789C20.3788 68.3441 21.0249 68.7237 21.713 69.0069C23.708 69.723 25.8597 68.7364 27.9571 68.466C29.4036 68.2816 30.8682 68.4383 32.3177 68.5981C32.1972 67.3903 32.2364 66.1117 32.809 65.0483C33.3815 63.9849 35.1264 62.5895 36.2806 62.8784C35.1354 61.8919 33.2399 62.442 31.9712 61.6214C31.4619 61.2925 31.0279 60.8561 30.5277 60.5088C28.9516 59.4208 26.6914 59.2364 25.6759 57.5921C25.6104 57.5019 25.5689 57.3961 25.5553 57.2848C25.5372 57.042 25.7392 56.8483 25.9139 56.6701C27.1857 55.4407 27.8215 53.6673 27.9782 51.8939C28.1349 50.1205 27.8577 48.3441 27.5412 46.5922C27.2851 45.1877 26.9988 43.7646 26.372 42.4861C25.7452 41.2075 24.7537 40.055 23.4398 39.5786Z" fill="#EC4A42"/>
<g opacity="0.1">
<path opacity="0.1" d="M54.149 43.157C54.8196 45.2419 52.9907 52.4996 52.9907 52.4996C52.9907 52.4996 47.2723 47.6713 46.5895 45.5863C46.2662 44.5855 46.3536 43.4972 46.8327 42.5609C47.3117 41.6245 48.1431 40.9168 49.1439 40.5935C50.1447 40.2701 51.233 40.3575 52.1694 40.8366C53.1057 41.3156 53.8134 42.147 54.1368 43.1478L54.149 43.157Z" fill="#EC4A42"/>
<path opacity="0.1" d="M53.9638 16.7108C52.8482 18.5946 46.2063 22.0451 46.2063 22.0451C46.2063 22.0451 46.0234 14.5618 47.1207 12.6781C47.6555 11.7726 48.528 11.1167 49.5464 10.8546C50.5648 10.5925 51.6456 10.7457 52.551 11.2805C53.4564 11.8153 54.1124 12.6878 54.3745 13.7062C54.6366 14.7246 54.4834 15.8054 53.9486 16.7108H53.9638Z" fill="#EC4A42"/>
<path opacity="0.1" d="M52.5735 110.859C51.8907 112.02 47.8001 114.142 47.8001 114.142C47.8001 114.142 47.6873 109.536 48.3732 108.378C48.7022 107.821 49.239 107.417 49.8655 107.256C50.4921 107.095 51.1569 107.189 51.714 107.518C52.271 107.847 52.6745 108.384 52.8357 109.01C52.9969 109.637 52.9026 110.302 52.5735 110.859Z" fill="#EC4A42"/>
<path opacity="0.1" d="M97.0943 99.3167C96.4085 100.475 92.3209 102.6 92.3209 102.6C92.3209 102.6 92.2081 97.9938 92.8939 96.8324C93.2234 96.2754 93.7606 95.8721 94.3874 95.7112C95.0142 95.5503 95.6792 95.6449 96.2362 95.9743C96.7932 96.3038 97.1966 96.841 97.3575 97.4678C97.5184 98.0946 97.4237 98.7597 97.0943 99.3167Z" fill="#EC4A42"/>
<path opacity="0.1" d="M49.2478 80.8169C48.1353 82.7037 41.4933 86.1512 41.4933 86.1512C41.4933 86.1512 41.3074 78.671 42.4078 76.7842C42.6725 76.3361 43.023 75.9445 43.4391 75.6318C43.8553 75.3191 44.3289 75.0915 44.833 74.9618C45.3371 74.8322 45.8618 74.8031 46.3772 74.8762C46.8925 74.9494 47.3884 75.1233 47.8365 75.3881C48.2847 75.6529 48.6762 76.0034 48.9889 76.4195C49.3016 76.8356 49.5293 77.3093 49.6589 77.8134C49.7885 78.3175 49.8176 78.8422 49.7445 79.3575C49.6713 79.8729 49.4974 80.3688 49.2326 80.8169H49.2478Z" fill="#EC4A42"/>
</g>
</svg>
