<svg width="203" height="221" viewBox="0 0 203 221" fill="none" xmlns="http://www.w3.org/2000/svg">
<path d="M163.147 15.7469V184.823C163.145 186.837 162.343 188.768 160.919 190.192C159.494 191.615 157.562 192.415 155.548 192.416H86.9084C85.9105 192.418 84.9221 192.223 83.9998 191.842C83.0775 191.461 82.2394 190.902 81.5335 190.196C80.8277 189.491 80.268 188.653 79.8864 187.731C79.5049 186.809 79.3091 185.821 79.3101 184.823V15.7469C79.31 14.7491 79.5065 13.761 79.8883 12.8391C80.2701 11.9172 80.8298 11.0795 81.5354 10.374C82.241 9.66839 83.0786 9.10871 84.0005 8.72689C84.9224 8.34507 85.9105 8.1486 86.9084 8.14868H97.1802V9.46592C97.18 11.1251 97.8389 12.7165 99.0119 13.89C100.185 15.0635 101.776 15.723 103.435 15.7235H138.346C139.681 15.7263 140.982 15.2982 142.055 14.5027C142.272 14.345 142.478 14.1724 142.671 13.9863C143.282 13.4028 143.768 12.7012 144.1 11.9242C144.431 11.1472 144.602 10.3108 144.601 9.46592V8.14868H155.548C156.546 8.14838 157.534 8.3447 158.456 8.72644C159.378 9.10818 160.216 9.66785 160.922 10.3735C161.627 11.0791 162.187 11.9168 162.569 12.8388C162.951 13.7608 163.147 14.749 163.147 15.7469Z" fill="white"/>
<path d="M123.169 128.705C131.38 128.705 138.036 122.048 138.036 113.837C138.036 105.626 131.38 98.969 123.169 98.969C114.957 98.969 108.301 105.626 108.301 113.837C108.301 122.048 114.957 128.705 123.169 128.705Z" fill="#EC4A42"/>
<path d="M160.539 202.411H81.0947C79.3056 202.417 77.5522 201.912 76.04 200.956C74.8277 200.201 73.8255 199.152 73.1262 197.907C72.427 196.661 72.0532 195.26 72.0397 193.831V8.5858C72.0397 3.85158 76.1018 4.97512e-06 81.0947 4.97512e-06H99.7652V1.70399C99.7652 5.34059 102.896 8.29923 106.744 8.29923H133.064C134.545 8.30745 135.993 7.85674 137.207 7.00904C138.068 6.41459 138.775 5.62301 139.268 4.70023C139.761 3.77745 140.027 2.75019 140.043 1.70399V0H160.539C165.531 0 169.594 3.85158 169.594 8.58579V193.831C169.586 195.09 169.296 196.33 168.744 197.461C168.192 198.592 167.393 199.584 166.405 200.364C164.741 201.697 162.671 202.419 160.539 202.411ZM81.0947 0.521679C76.3894 0.521679 72.5614 4.1393 72.5614 8.58579V193.831C72.5751 195.172 72.9268 196.487 73.5839 197.656C74.2411 198.824 75.1824 199.808 76.3207 200.516C77.749 201.419 79.4051 201.895 81.0947 201.89H160.539C162.551 201.898 164.506 201.216 166.077 199.959C167.004 199.228 167.755 198.297 168.273 197.237C168.791 196.176 169.064 195.012 169.072 193.831V8.5858C169.072 4.1393 165.244 0.521684 160.539 0.521684H140.565V1.70399C140.549 2.83447 140.263 3.94476 139.73 4.9422C139.198 5.93964 138.435 6.79529 137.504 7.43775C136.203 8.34629 134.652 8.82947 133.064 8.82091H106.744C102.608 8.82091 99.2435 5.6283 99.2435 1.70399V0.521679H81.0947Z" fill="#2C395D"/>
<path d="M145.85 138.711H99.9741V89.3179H145.85V138.711ZM100.562 138.123H145.262V89.906H100.562V138.123Z" fill="#2C395D"/>
<path d="M135.848 46.7942H105.73V47.3824H135.848V46.7942Z" fill="#2C395D"/>
<path d="M135.848 54.8003H105.73V55.3885H135.848V54.8003Z" fill="#2C395D"/>
<path d="M135.848 62.8062H105.73V63.3943H135.848V62.8062Z" fill="#2C395D"/>
<path d="M18.6663 201.959L18.3864 201.854C18.3248 201.831 12.2023 199.485 9.33417 194.167C6.46595 188.847 7.87038 182.443 7.8849 182.379L7.951 182.087L8.23082 182.192C8.29234 182.216 14.4148 184.561 17.283 189.88C20.1512 195.199 18.7468 201.604 18.7323 201.668L18.6663 201.959ZM9.79344 193.919C12.2183 198.416 17.0566 200.721 18.2824 201.248C18.5155 199.934 19.2465 194.621 16.8238 190.128C14.4013 185.635 9.56113 183.327 8.33476 182.799C8.10154 184.114 7.37086 189.426 9.79344 193.919Z" fill="#2C395D"/>
<path d="M11.5261 192.301C16.6804 195.402 18.6655 201.561 18.6655 201.561C18.6655 201.561 12.2938 202.693 7.13944 199.592C1.9851 196.491 0 190.331 0 190.331C0 190.331 6.37173 189.2 11.5261 192.301Z" fill="#EC4A42"/>
<path d="M184.609 201.43L185.087 209.312L187.714 212.178L193.207 208.118L189.625 199.997L184.609 201.43Z" fill="#FBBDBD"/>
<path d="M191.058 208.834C191.058 208.834 191.164 207.242 191.35 204.217C191.35 204.217 199.417 202.625 198.939 208.118C198.462 213.611 194.401 215.522 194.401 215.522C194.401 215.522 192.491 215.283 192.73 217.194C192.968 219.104 185.803 223.164 182.46 219.343L184.516 207.282C184.516 207.282 186.759 208.834 187.475 208.118C188.192 207.401 191.058 208.834 191.058 208.834Z" fill="#2C395D"/>
<path d="M177.559 52.5159L184.247 66.6072L172.224 69.8886L169.917 57.0537L177.559 52.5159Z" fill="#FBBDBD"/>
<path d="M170.633 60.3973C175.777 60.3973 179.948 56.227 179.948 51.0827C179.948 45.9384 175.777 41.7681 170.633 41.7681C165.489 41.7681 161.319 45.9384 161.319 51.0827C161.319 56.227 165.489 60.3973 170.633 60.3973Z" fill="#FBBDBD"/>
<path d="M176.731 55.0795C175.885 55.029 175.059 55.3148 174.219 55.4263C171.214 55.8253 168.088 53.6447 167.425 50.6868C167.371 50.2929 167.254 49.9104 167.077 49.5545C166.615 48.7994 165.561 48.6554 164.693 48.8291C163.825 49.0027 163.002 49.4091 162.117 49.4555C160.752 49.5271 159.441 48.6866 158.714 47.5291C157.986 46.3716 157.78 44.9473 157.878 43.5837L158.533 44.2706C158.799 43.708 158.901 43.0819 158.829 42.4638C159.176 42.3714 159.541 42.3697 159.888 42.4586C160.236 42.5476 160.555 42.7244 160.815 42.972C161.392 43.0334 160.957 41.9015 161.385 41.5103C161.565 41.3465 161.84 41.3774 162.083 41.3798C163.311 41.3916 164.304 40.4525 165.272 39.6965C166.948 38.3896 168.908 37.4954 170.994 37.0863C172.381 36.8159 173.855 36.7724 175.17 37.2887C176.25 37.7126 177.153 38.4848 177.99 39.2889C180.048 41.2682 181.871 43.5939 182.727 46.3182C183.423 48.5496 183.443 50.9372 182.784 53.1799C182.439 54.3445 181.399 58.3331 179.876 58.426C177.963 58.5427 179.112 55.2215 176.731 55.0795Z" fill="#2C395D"/>
<path d="M165.02 201.43L164.543 209.312L161.916 212.178L156.422 208.118L160.005 199.997L165.02 201.43Z" fill="#FBBDBD"/>
<path d="M168.006 65.174C168.006 65.174 169.2 56.337 180.664 59.2031C192.128 62.0691 193.323 64.6963 193.323 64.6963C193.323 64.6963 193.561 67.0847 194.278 67.3235C194.994 67.5623 196.905 68.7565 195.95 69.473C194.994 70.1895 200.249 77.3546 200.249 77.3546C200.249 77.3546 203.354 79.2653 201.443 88.3411C199.532 97.4169 197.383 110.553 197.383 110.553C197.383 110.553 198.099 114.852 197.144 117.24C196.189 119.629 198.099 121.301 198.099 122.256C198.099 123.211 197.622 127.988 197.622 127.988C197.622 127.988 165.14 126.794 160.602 127.988C156.064 129.182 168.006 65.174 168.006 65.174Z" fill="#EC4A42"/>
<path d="M196.547 125.958C196.547 125.958 198.458 130.496 196.547 137.9C194.636 145.304 194.159 163.933 194.159 163.933C194.159 163.933 194.159 199.997 192.487 201.908C190.815 203.819 191.292 206.923 191.292 206.923H184.127C184.127 206.923 184.366 203.102 183.411 200.953C182.456 198.803 182.694 175.636 182.694 175.636L178.634 143.154L170.514 173.964C170.514 173.964 167.409 196.892 166.215 197.848C165.02 198.803 166.215 202.624 166.215 202.624C163.76 202.992 161.252 202.574 159.05 201.43V197.609C159.05 197.609 155.467 196.176 156.661 190.921C157.855 185.667 157.378 128.585 160.96 125.958C164.543 123.331 196.547 125.958 196.547 125.958Z" fill="#2C395D"/>
<path d="M158.572 208.834C158.572 208.834 158.466 207.242 158.28 204.217C158.28 204.217 150.213 202.625 150.69 208.118C151.168 213.611 155.228 215.522 155.228 215.522C155.228 215.522 157.139 215.283 156.9 217.194C156.661 219.104 163.826 223.164 167.17 219.343L165.114 207.282C165.114 207.282 162.871 208.834 162.154 208.118C161.438 207.401 158.572 208.834 158.572 208.834Z" fill="#2C395D"/>
<path d="M155.348 126.794L154.631 130.138C154.631 130.138 146.033 143.751 153.198 145.184C160.363 146.617 159.885 132.048 159.885 132.048L160.602 128.943L155.348 126.794Z" fill="#FBBDBD"/>
<path d="M163.826 67.2042C163.826 67.2042 168.842 63.8605 171.23 67.9207C173.618 71.9809 176.007 81.2956 176.007 81.2956L172.902 103.985L161.438 130.257L154.512 127.63C154.512 127.63 155.706 124.286 155.228 122.853C154.75 121.42 157.139 117.838 157.139 117.838L159.527 99.2083C159.527 99.2083 160.482 67.443 163.826 67.2042Z" fill="#EC4A42"/>
<path opacity="0.1" d="M172.783 103.388L164.901 131.81L161.319 130.376L172.783 103.388Z" fill="#2C395D"/>
<path opacity="0.1" d="M191.3 73.6996C193.243 73.7081 195.179 73.4748 197.065 73.0051L196.948 72.5421C192.487 73.6708 187.443 73.3931 181.956 71.7156C177.074 70.2231 172.462 67.8326 168.002 65.521L167.783 65.945C172.261 68.2666 176.893 70.6672 181.817 72.1725C184.885 73.1482 188.081 73.6629 191.3 73.6996Z" fill="#2C395D"/>
<path d="M115.083 130.792H69.6966V179.568H115.083V130.792Z" fill="#EC4A42"/>
<path d="M61.4321 52.424C58.3741 45.2087 50.5898 43.846 50.5898 43.846C50.5898 43.846 43.0946 41.8465 36.8352 51.3692C31.0009 60.2452 23.4773 68.5611 33.0188 72.104L35.5392 66.8108L35.8415 72.9024C37.229 73.1913 38.6312 73.4041 40.042 73.5398C50.6253 74.615 60.6018 76.4027 60.7866 72.5779C61.0322 67.4934 64.3744 59.3666 61.4321 52.424Z" fill="#2C395D"/>
<path d="M29.1433 110.206L28.4623 127.571C28.4623 127.571 21.3117 141.532 27.1003 141.192C32.8889 140.851 32.2078 127.571 32.2078 127.571L34.2509 111.227L29.1433 110.206Z" fill="#FFB8B8"/>
<path d="M68.3012 107.141L70.3443 124.507C70.3443 124.507 76.4733 133.7 71.7063 136.765C66.9392 139.829 66.9392 125.869 66.9392 125.869L61.8317 108.163L68.3012 107.141Z" fill="#FFB8B8"/>
<path d="M61.1507 139.489L55.0216 163.324C55.0216 163.324 52.2976 172.858 48.5521 177.625L47.1901 180.349L41.742 179.668L45.4875 164.346L47.8711 136.084L61.1507 139.489Z" fill="#FFB8B8"/>
<path opacity="0.1" d="M61.1507 139.489L55.0216 163.324C55.0216 163.324 52.2976 172.858 48.5521 177.625L47.1901 180.349L41.742 179.668L45.4875 164.346L47.8711 136.084L61.1507 139.489Z" fill="#2C395D"/>
<path d="M40.3941 175.867L49.7061 178.023L45.8682 187.07C45.8682 187.07 47.4281 192.486 45.9422 195.355C44.4564 198.223 44.6708 203.427 44.6708 203.427L42.6526 203.109C42.6526 203.109 37.7527 212.334 31.9632 209.699C26.1736 207.063 32.3315 200.794 32.3315 200.794C32.3315 200.794 37.3374 190.897 37.9731 186.861C38.6088 182.824 40.3941 175.867 40.3941 175.867Z" fill="#2C395D"/>
<path opacity="0.1" d="M40.3941 175.867L49.7061 178.023L45.8682 187.07C45.8682 187.07 47.4281 192.486 45.9422 195.355C44.4564 198.223 44.6708 203.427 44.6708 203.427L42.6526 203.109C42.6526 203.109 37.7527 212.334 31.9632 209.699C26.1736 207.063 32.3315 200.794 32.3315 200.794C32.3315 200.794 37.3374 190.897 37.9731 186.861C38.6088 182.824 40.3941 175.867 40.3941 175.867Z" fill="#2C395D"/>
<path d="M32.5483 134.381L37.6559 159.919C37.6559 159.919 35.9534 172.518 37.9964 180.349L40.0394 187.84H46.8495V160.26C46.8495 160.26 47.19 137.786 46.1685 136.084C45.147 134.381 32.5483 134.381 32.5483 134.381Z" fill="#FFB8B8"/>
<path d="M48.2115 185.116L38.6774 185.797L41.0609 195.332C41.0609 195.332 38.6774 200.439 39.6989 203.504C40.7204 206.568 39.6989 211.676 39.6989 211.676H41.7419C41.7419 211.676 45.1469 221.55 51.276 219.848C57.4051 218.145 52.2975 210.995 52.2975 210.995C52.2975 210.995 48.8925 200.439 48.8925 196.353C48.8925 192.267 48.2115 185.116 48.2115 185.116Z" fill="#2C395D"/>
<path d="M50.595 67.3022C55.6725 67.3022 59.7886 63.1861 59.7886 58.1086C59.7886 53.0312 55.6725 48.915 50.595 48.915C45.5175 48.915 41.4014 53.0312 41.4014 58.1086C41.4014 63.1861 45.5175 67.3022 50.595 67.3022Z" fill="#FFB8B8"/>
<path d="M44.2957 61.6841C44.2957 61.6841 44.9767 73.2612 42.9337 73.9422C40.8907 74.6232 53.4893 73.9422 53.4893 73.9422C53.4893 73.9422 51.7868 66.7916 53.4893 64.7486C55.1918 62.7056 44.2957 61.6841 44.2957 61.6841Z" fill="#FFB8B8"/>
<path d="M53.6596 72.0693C53.6596 72.0693 44.8065 71.3883 43.104 72.0693C41.4015 72.7503 36.6344 76.1553 36.6344 76.1553L39.0179 97.6071L58.4266 101.693L61.4912 97.2666L64.5557 90.797L63.1937 82.6249L62.8532 77.8578L53.6596 72.0693Z" fill="#EC4A42"/>
<path d="M34.9318 77.5173C34.9318 77.5173 30.5052 78.5388 30.1647 81.9439C29.8242 85.3489 29.8242 93.8615 30.1647 95.2235C30.5052 96.5855 30.1647 97.2665 29.8242 97.607C29.4837 97.9475 28.8027 97.2665 29.4837 98.2881C30.1647 99.3096 30.1647 99.3096 29.8242 100.331C29.4837 101.353 28.4622 99.9906 29.1432 101.693C29.8242 103.396 30.1647 103.736 29.8242 104.077C29.4837 104.417 28.4622 112.249 28.4622 112.249L34.2508 113.27L40.0393 93.1805L34.9318 77.5173Z" fill="#EC4A42"/>
<path d="M61.4911 77.5173C62.1378 77.5534 62.763 77.7619 63.3019 78.1212C63.8407 78.4804 64.2737 78.9773 64.5557 79.5604C65.5772 81.6034 68.3012 94.883 67.9607 95.9045C67.6202 96.926 66.9392 95.564 67.6202 97.607C68.3012 99.6501 67.6202 99.3096 67.9607 100.672C68.3012 102.034 66.5987 100.672 67.9607 102.034C69.3227 103.396 70.0037 103.736 69.3227 104.417C68.6417 105.098 67.6202 103.736 68.6417 105.098C69.6632 106.46 69.6632 108.503 69.6632 108.503L61.4911 110.206L59.1076 91.1375L61.4911 77.5173Z" fill="#EC4A42"/>
<path d="M33.8659 76.9758L35.5387 76.1395C35.7078 76.0549 35.892 76.0047 36.0807 75.9917C36.2693 75.9787 36.4587 76.0032 36.6378 76.0638C36.817 76.1244 36.9823 76.2198 37.1244 76.3447C37.2664 76.4695 37.3823 76.6213 37.4654 76.7911L45.147 92.4994L53.6596 97.9475L59.7886 95.2235C59.7886 95.2235 64.2152 88.4134 62.8532 85.0084C61.9297 82.6997 60.8479 79.1477 60.247 77.0995C60.2117 76.979 60.2145 76.8505 60.2548 76.7316C60.2952 76.6126 60.3712 76.509 60.4725 76.4348C60.5738 76.3605 60.6955 76.3192 60.8211 76.3166C60.9467 76.3139 61.07 76.35 61.1744 76.4199L62.3349 77.1936C62.7064 77.4413 62.9654 77.8253 63.0558 78.2625L65.5772 90.4564L62.1721 97.607V104.417L64.5557 141.191C64.5557 141.191 55.7026 139.829 46.8495 138.127C37.9964 136.424 26.7598 135.062 26.7598 135.062C26.7598 135.062 32.5483 105.098 37.3154 99.9905C37.3154 99.9905 37.3154 96.245 37.9964 95.9045C38.6774 95.5639 39.3584 93.1804 39.3584 93.1804L33.1906 78.8217C33.0464 78.4859 33.036 78.1078 33.1616 77.7646C33.2871 77.4214 33.5391 77.1392 33.8659 76.9758Z" fill="#2C395D"/>
<path d="M59.703 49.8026L51.9018 45.7163L41.1287 47.388L38.8998 57.2324L44.4481 57.019L45.9983 53.4022V56.9595L48.5584 56.8609L50.0444 51.1029L50.973 57.2324L60.0747 57.0466L59.703 49.8026Z" fill="#2C395D"/>
<path d="M41.2312 59.8963C41.7953 59.8963 42.2527 59.096 42.2527 58.1087C42.2527 57.1214 41.7953 56.321 41.2312 56.321C40.667 56.321 40.2097 57.1214 40.2097 58.1087C40.2097 59.096 40.667 59.8963 41.2312 59.8963Z" fill="#FFB8B8"/>
<path d="M130.472 113.955H123.05V106.533H122.765V113.955H115.343V114.24H122.765V121.662H123.05V114.24H130.472V113.955Z" fill="#2C395D"/>
<path d="M107.417 145.392H77.2982V145.98H107.417V145.392Z" fill="white"/>
<path d="M107.417 153.397H77.2982V153.986H107.417V153.397Z" fill="white"/>
<path d="M107.417 161.404H77.2982V161.992H107.417V161.404Z" fill="white"/>
</svg>
