<svg width="237" height="197" viewBox="0 0 237 197" fill="none" xmlns="http://www.w3.org/2000/svg">
<path d="M88.6567 148.816C87.9191 147.048 87.8381 145.075 88.4282 143.253C89.0184 141.43 90.2409 139.879 91.8748 138.879C92.4189 138.548 91.9215 137.691 91.3747 138.024C89.5006 139.143 88.1018 140.91 87.4433 142.991C86.7847 145.072 86.912 147.323 87.8012 149.316C88.0512 149.901 88.905 149.396 88.6567 148.816H88.6567Z" fill="#2C395D"/>
<path d="M88.9395 150.148C87.6031 147.78 87.9176 144.947 88.3983 142.386C88.9001 139.714 89.5578 137 88.9887 134.281C88.7306 132.962 88.1196 131.737 87.2207 130.736C86.7879 130.266 86.0885 130.968 86.5201 131.437C88.2008 133.262 88.3957 135.911 88.1231 138.262C87.8015 141.036 86.8903 143.739 87.0034 146.558C87.033 147.988 87.4034 149.39 88.0839 150.648C88.1526 150.756 88.2607 150.834 88.3856 150.865C88.5105 150.895 88.6424 150.876 88.7534 150.811C88.8643 150.746 88.9458 150.641 88.9805 150.517C89.0153 150.393 89.0005 150.261 88.9395 150.148L88.9395 150.148Z" fill="#2C395D"/>
<path d="M96.1119 157.71H79.2675C78.8734 157.709 78.4956 157.552 78.217 157.274C77.9384 156.995 77.7816 156.617 77.7812 156.223V151.276C77.7826 150.004 78.2884 148.785 79.1874 147.886C80.0865 146.987 81.3054 146.481 82.5768 146.48H85.0474C85.1788 146.48 85.3047 146.428 85.3976 146.335C85.4905 146.242 85.5427 146.116 85.5428 145.985V143.673C85.5431 143.454 85.6302 143.244 85.785 143.089C85.9398 142.934 86.1496 142.847 86.3686 142.847H89.0108C89.2297 142.847 89.4396 142.934 89.5944 143.089C89.7492 143.244 89.8363 143.454 89.8365 143.673V145.985C89.8367 146.116 89.8889 146.242 89.9818 146.335C90.0747 146.428 90.2006 146.48 90.3319 146.48H92.8025C94.074 146.481 95.2929 146.987 96.1919 147.886C97.091 148.785 97.5967 150.004 97.5982 151.276V156.223C97.5977 156.617 97.441 156.995 97.1623 157.274C96.8837 157.552 96.5059 157.709 96.1119 157.71Z" fill="#EC4A42"/>
<path d="M87.9491 127.997C88.3037 129.88 87.8647 131.542 86.9684 131.711C86.0721 131.88 85.058 130.491 84.7034 128.609C84.3487 126.727 85.4395 123.597 85.4395 123.597C85.4395 123.597 87.5944 126.115 87.9491 127.997Z" fill="#EC4A42"/>
<path d="M94.7507 136.755C93.6276 138.307 92.1182 139.131 91.3794 138.596C90.6407 138.061 90.9522 136.37 92.0753 134.818C93.1984 133.267 96.2212 131.907 96.2212 131.907C96.2212 131.907 95.8738 135.204 94.7507 136.755Z" fill="#EC4A42"/>
<path d="M57.6103 29.9158C56.8727 28.148 56.7916 26.1747 57.3818 24.3524C57.972 22.5301 59.1944 20.9789 60.8283 19.9792C61.3724 19.6484 60.875 18.7911 60.3282 19.1236C58.4541 20.2426 57.0554 22.01 56.3968 24.0911C55.7383 26.1721 55.8656 28.4224 56.7547 30.4159C57.0047 31.0004 57.8585 30.4962 57.6103 29.9158H57.6103Z" fill="#2C395D"/>
<path d="M57.8939 31.2474C56.5575 28.8798 56.872 26.0464 57.3527 23.4861C57.8545 20.8134 58.5122 18.0996 57.9431 15.3813C57.685 14.0615 57.074 12.8364 56.1751 11.8362C55.7423 11.366 55.043 12.0681 55.4745 12.5368C57.1552 14.3623 57.3501 17.0104 57.0775 19.3622C56.7559 22.1361 55.8447 24.8392 55.9578 27.6579C55.9874 29.0877 56.3578 30.4897 57.0383 31.7475C57.107 31.8562 57.2151 31.934 57.34 31.9645C57.4649 31.995 57.5968 31.9757 57.7078 31.9109C57.8188 31.846 57.9002 31.7405 57.9349 31.6167C57.9697 31.493 57.955 31.3605 57.8939 31.2474L57.8939 31.2474Z" fill="#2C395D"/>
<path d="M65.0663 38.8075H48.2219C47.8278 38.8071 47.45 38.6504 47.1714 38.3717C46.8928 38.0931 46.736 37.7153 46.7356 37.3213V32.3735C46.7371 31.1021 47.2428 29.8831 48.1418 28.9841C49.0408 28.0851 50.2598 27.5794 51.5312 27.5779H54.0018C54.1332 27.5778 54.2591 27.5255 54.352 27.4327C54.4448 27.3398 54.4971 27.2139 54.4972 27.0825V24.7705C54.4975 24.5516 54.5846 24.3417 54.7394 24.1869C54.8941 24.0321 55.104 23.9451 55.3229 23.9448H57.9652C58.1841 23.9451 58.394 24.0321 58.5488 24.1869C58.7036 24.3417 58.7907 24.5516 58.7909 24.7705V27.0825C58.7911 27.2139 58.8433 27.3398 58.9362 27.4327C59.0291 27.5255 59.155 27.5778 59.2863 27.5779H61.757C63.0284 27.5794 64.2473 28.0851 65.1463 28.9841C66.0454 29.8831 66.5511 31.1021 66.5525 32.3735V37.3213C66.5521 37.7153 66.3954 38.0931 66.1167 38.3717C65.8381 38.6504 65.4603 38.8071 65.0663 38.8075Z" fill="#EC4A42"/>
<path d="M56.9017 9.09703C57.2564 10.9792 56.8173 12.6419 55.921 12.8108C55.0247 12.9797 54.0107 11.5908 53.656 9.7086C53.3014 7.82641 54.3921 4.69653 54.3921 4.69653C54.3921 4.69653 56.5471 7.21485 56.9017 9.09703Z" fill="#EC4A42"/>
<path d="M63.7042 17.8514C62.5811 19.4028 61.0717 20.227 60.3329 19.6922C59.5941 19.1574 59.9057 17.4661 61.0288 15.9146C62.1519 14.3632 65.1747 13.0037 65.1747 13.0037C65.1747 13.0037 64.8273 16.2999 63.7042 17.8514Z" fill="#EC4A42"/>
<path d="M24.1104 89.8376H10.5688V94.7919H24.1104V89.8376Z" fill="#EC4A42"/>
<path d="M24.1104 106.02H10.5688V110.975H24.1104V106.02Z" fill="#EC4A42"/>
<path d="M106.681 195.858H5.6148C4.12618 195.856 2.699 195.264 1.64638 194.211C0.593765 193.159 0.00166883 191.731 0 190.243V5.6148C0.00166883 4.12618 0.593765 2.699 1.64638 1.64638C2.699 0.593765 4.12618 0.00166883 5.6148 0H106.681C108.17 0.00167581 109.597 0.593771 110.65 1.64639C111.702 2.699 112.294 4.12618 112.296 5.6148V190.243C112.294 191.731 111.702 193.159 110.65 194.211C109.597 195.264 108.17 195.856 106.681 195.858ZM5.6148 0.660565C4.30131 0.662051 3.04205 1.18449 2.11327 2.11327C1.18449 3.04204 0.662051 4.30131 0.660565 5.6148V190.243C0.662051 191.556 1.18449 192.815 2.11327 193.744C3.04205 194.673 4.30131 195.195 5.6148 195.197H106.681C107.995 195.195 109.254 194.673 110.183 193.744C111.112 192.815 111.634 191.556 111.635 190.243V5.6148C111.634 4.30131 111.112 3.04204 110.183 2.11327C109.254 1.18449 107.995 0.662051 106.681 0.660565H5.6148Z" fill="#2C395D"/>
<path d="M111.966 38.1321H0.330811V38.7926H111.966V38.1321Z" fill="#2C395D"/>
<path d="M111.966 77.7769H0.330811V78.4374H111.966V77.7769Z" fill="#2C395D"/>
<path d="M111.966 117.421H0.330811V118.082H111.966V117.421Z" fill="#2C395D"/>
<path d="M111.966 157.064H0.330811V157.725H111.966V157.064Z" fill="#2C395D"/>
<path d="M23.1198 118.242H11.8902C11.4524 118.241 11.0327 118.067 10.7231 117.757C10.4135 117.448 10.2393 117.028 10.2388 116.59V84.5528C10.2393 84.115 10.4135 83.6952 10.7231 83.3856C11.0327 83.076 11.4524 82.9019 11.8902 82.9014H23.1198C23.5577 82.9019 23.9774 83.076 24.287 83.3856C24.5966 83.6952 24.7708 84.115 24.7713 84.5528V116.59C24.7708 117.028 24.5966 117.448 24.287 117.757C23.9774 118.067 23.5577 118.241 23.1198 118.242ZM11.8902 83.5619C11.6275 83.5622 11.3757 83.6667 11.1899 83.8525C11.0042 84.0382 10.8997 84.2901 10.8994 84.5528V116.59C10.8997 116.853 11.0042 117.105 11.1899 117.29C11.3757 117.476 11.6275 117.581 11.8902 117.581H23.1198C23.3825 117.581 23.6344 117.476 23.8202 117.29C24.0059 117.105 24.1104 116.853 24.1107 116.59V84.5528C24.1104 84.2901 24.0059 84.0382 23.8202 83.8525C23.6344 83.6667 23.3825 83.5622 23.1198 83.5619H11.8902Z" fill="#2C395D"/>
<path d="M44.918 89.8376H31.3764V94.7919H44.918V89.8376Z" fill="#EC4A42"/>
<path d="M44.918 106.02H31.3764V110.975H44.918V106.02Z" fill="#EC4A42"/>
<path d="M43.9275 118.242H32.6979C32.2601 118.241 31.8403 118.067 31.5308 117.757C31.2212 117.448 31.047 117.028 31.0465 116.59V84.5528C31.047 84.115 31.2212 83.6952 31.5308 83.3856C31.8403 83.076 32.2601 82.9019 32.6979 82.9014H43.9275C44.3654 82.9019 44.7851 83.076 45.0947 83.3856C45.4043 83.6952 45.5784 84.115 45.5789 84.5528V116.59C45.5784 117.028 45.4043 117.448 45.0947 117.757C44.7851 118.067 44.3654 118.241 43.9275 118.242ZM32.6979 83.5619C32.4352 83.5622 32.1834 83.6667 31.9976 83.8525C31.8119 84.0382 31.7074 84.2901 31.7071 84.5528V116.59C31.7074 116.853 31.8119 117.105 31.9976 117.29C32.1834 117.476 32.4352 117.581 32.6979 117.581H43.9275C44.1902 117.581 44.4421 117.476 44.6278 117.29C44.8136 117.105 44.9181 116.853 44.9184 116.59V84.5528C44.9181 84.2901 44.8136 84.0382 44.6278 83.8525C44.4421 83.6667 44.1902 83.5622 43.9275 83.5619H32.6979Z" fill="#2C395D"/>
<path d="M77.9466 49.8728H64.405V54.827H77.9466V49.8728Z" fill="#EC4A42"/>
<path d="M77.9466 66.0571H64.405V71.0114H77.9466V66.0571Z" fill="#EC4A42"/>
<path d="M76.9552 78.277H65.7256C65.2878 78.2765 64.8681 78.1023 64.5585 77.7928C64.2489 77.4832 64.0747 77.0634 64.0742 76.6256V44.5882C64.0747 44.1504 64.2489 43.7306 64.5585 43.421C64.8681 43.1114 65.2878 42.9373 65.7256 42.9368H76.9552C77.3931 42.9373 77.8128 43.1114 78.1224 43.421C78.432 43.7306 78.6061 44.1504 78.6066 44.5882V76.6256C78.6061 77.0634 78.432 77.4832 78.1224 77.7928C77.8128 78.1023 77.3931 78.2765 76.9552 78.277ZM65.7256 43.5973C65.4629 43.5976 65.2111 43.7021 65.0253 43.8879C64.8396 44.0736 64.7351 44.3255 64.7348 44.5882V76.6256C64.7351 76.8883 64.8396 77.1401 65.0253 77.3259C65.2111 77.5117 65.4629 77.6161 65.7256 77.6164H76.9552C77.2179 77.6161 77.4698 77.5117 77.6556 77.3259C77.8413 77.1401 77.9458 76.8883 77.9461 76.6256V44.5882C77.9458 44.3255 77.8413 44.0736 77.6556 43.8879C77.4698 43.7021 77.2179 43.5976 76.9552 43.5973H65.7256Z" fill="#2C395D"/>
<path d="M98.7542 49.8728H85.2126V54.827H98.7542V49.8728Z" fill="#EC4A42"/>
<path d="M98.7542 66.0571H85.2126V71.0114H98.7542V66.0571Z" fill="#EC4A42"/>
<path d="M97.7638 78.277H86.5342C86.0963 78.2765 85.6766 78.1023 85.367 77.7928C85.0574 77.4832 84.8833 77.0634 84.8828 76.6256V44.5882C84.8833 44.1504 85.0574 43.7306 85.367 43.421C85.6766 43.1114 86.0963 42.9373 86.5342 42.9368H97.7638C98.2016 42.9373 98.6214 43.1114 98.9309 43.421C99.2405 43.7306 99.4147 44.1504 99.4152 44.5882V76.6256C99.4147 77.0634 99.2405 77.4832 98.9309 77.7928C98.6214 78.1023 98.2016 78.2765 97.7638 78.277ZM86.5342 43.5973C86.2715 43.5976 86.0196 43.7021 85.8338 43.8879C85.6481 44.0736 85.5436 44.3255 85.5433 44.5882V76.6256C85.5436 76.8883 85.6481 77.1401 85.8338 77.3259C86.0196 77.5117 86.2715 77.6161 86.5342 77.6164H97.7638C98.0265 77.6161 98.2783 77.5117 98.4641 77.3259C98.6498 77.1401 98.7543 76.8883 98.7546 76.6256V44.5882C98.7543 44.3255 98.6498 44.0736 98.4641 43.8879C98.2783 43.7021 98.0265 43.5976 97.7638 43.5973H86.5342Z" fill="#2C395D"/>
<path d="M61.5283 86.8788L48.8522 91.6421L50.5948 96.2797L63.271 91.5164L61.5283 86.8788Z" fill="#EC4A42"/>
<path d="M67.2218 102.028L54.5456 106.792L56.2883 111.429L68.9644 106.666L67.2218 102.028Z" fill="#EC4A42"/>
<path d="M59.4992 117.872C59.1633 117.871 58.8356 117.769 58.5597 117.577C58.2837 117.386 58.0725 117.115 57.9542 116.801L46.6848 86.8107C46.5314 86.4007 46.5467 85.9466 46.7276 85.5479C46.9085 85.1492 47.2401 84.8385 47.6498 84.684L58.1618 80.734C58.3648 80.6577 58.5809 80.6221 58.7976 80.6293C59.0144 80.6365 59.2276 80.6864 59.4251 80.776C59.6226 80.8656 59.8005 80.9932 59.9486 81.1516C60.0968 81.31 60.2123 81.496 60.2886 81.6991L71.5579 111.689C71.7114 112.099 71.696 112.553 71.5151 112.952C71.3342 113.35 71.0026 113.661 70.5929 113.816H70.5929L60.0809 117.766C59.895 117.836 59.6979 117.872 59.4992 117.872ZM58.7433 81.2885C58.624 81.2886 58.5057 81.3103 58.3941 81.3523L47.8822 85.3024C47.6364 85.3951 47.4374 85.5815 47.3289 85.8207C47.2203 86.0599 47.2111 86.3325 47.3032 86.5785L58.5725 116.568C58.6183 116.69 58.6876 116.802 58.7765 116.897C58.8654 116.992 58.9721 117.068 59.0906 117.122C59.2091 117.176 59.337 117.206 59.4671 117.21C59.5971 117.214 59.7268 117.193 59.8486 117.147L70.3605 113.197C70.6063 113.105 70.8053 112.918 70.9139 112.679C71.0224 112.44 71.0316 112.167 70.9395 111.921L59.6702 81.9313C59.5992 81.7427 59.4725 81.5803 59.3069 81.4654C59.1413 81.3506 58.9447 81.2889 58.7433 81.2885Z" fill="#2C395D"/>
<path d="M15.9497 47.5738L3.2735 52.3372L5.01618 56.9748L17.6923 52.2115L15.9497 47.5738Z" fill="#EC4A42"/>
<path d="M21.6422 62.7233L8.96606 67.4866L10.7087 72.1242L23.3849 67.3609L21.6422 62.7233Z" fill="#EC4A42"/>
<path d="M13.9196 78.5689C13.5838 78.5682 13.2561 78.4654 12.9801 78.274C12.7042 78.0826 12.493 77.8117 12.3746 77.4974L1.10531 47.5075C0.951823 47.0975 0.967213 46.6433 1.1481 46.2447C1.32899 45.846 1.66061 45.5353 2.07023 45.3808L12.5823 41.4308C12.7853 41.3545 13.0013 41.3189 13.2181 41.3261C13.4348 41.3333 13.6481 41.3831 13.8456 41.4728C14.0431 41.5624 14.221 41.69 14.3691 41.8484C14.5173 42.0068 14.6328 42.1928 14.709 42.3958L25.9783 72.3858C26.1318 72.7958 26.1164 73.2499 25.9356 73.6486C25.7547 74.0473 25.423 74.3579 25.0134 74.5124H25.0134L14.5014 78.4624C14.3155 78.5327 14.1184 78.5687 13.9196 78.5689ZM13.1637 41.9853C13.0445 41.9854 12.9262 42.007 12.8146 42.0491L2.30266 45.9991C2.05687 46.0918 1.85787 46.2783 1.74933 46.5175C1.64079 46.7567 1.63156 47.0292 1.72366 47.2753L12.993 77.2652C13.0387 77.387 13.1081 77.4986 13.1969 77.5936C13.2858 77.6886 13.3926 77.7652 13.5111 77.819C13.6296 77.8727 13.7575 77.9026 13.8876 77.9069C14.0176 77.9113 14.1472 77.8899 14.269 77.8441L24.781 73.8941C25.0268 73.8014 25.2258 73.615 25.3343 73.3758C25.4429 73.1365 25.4521 72.864 25.36 72.618L14.0907 42.6281C14.0197 42.4395 13.8929 42.277 13.7274 42.1622C13.5618 42.0474 13.3652 41.9857 13.1637 41.9853Z" fill="#2C395D"/>
<path d="M200.449 82.5718C206.104 82.5718 210.688 77.9877 210.688 72.333C210.688 66.6783 206.104 62.0942 200.449 62.0942C194.794 62.0942 190.21 66.6783 190.21 72.333C190.21 77.9877 194.794 82.5718 200.449 82.5718Z" fill="#2C395D"/>
<path d="M154.963 119.058C155.447 119.245 155.966 119.324 156.483 119.29C157.001 119.255 157.504 119.107 157.958 118.856C158.413 118.606 158.806 118.259 159.112 117.84C159.418 117.42 159.627 116.939 159.727 116.43L187.879 98.6682L182.755 92.8992L156.682 112.185C155.815 112.074 154.939 112.285 154.218 112.778C153.496 113.271 152.981 114.011 152.769 114.858C152.558 115.705 152.664 116.601 153.068 117.375C153.472 118.149 154.147 118.748 154.963 119.058Z" fill="#FFB8B8"/>
<path d="M182.001 103.39C181.752 103.39 181.506 103.328 181.287 103.209C181.069 103.09 180.883 102.918 180.748 102.708L177.488 97.6423C177.282 97.3225 177.207 96.936 177.277 96.5623C177.348 96.1887 177.559 95.8563 177.867 95.6335L188.776 87.7486C189.306 87.366 189.906 87.0934 190.543 86.947C191.18 86.8006 191.839 86.7834 192.482 86.8963C193.126 87.0092 193.74 87.25 194.288 87.6045C194.837 87.9589 195.309 88.4198 195.676 88.9599C196.044 89.4999 196.299 90.1082 196.427 90.7486C196.556 91.3891 196.554 92.0487 196.423 92.6886C196.291 93.3284 196.033 93.9355 195.663 94.4738C195.293 95.012 194.819 95.4707 194.269 95.8225L182.798 103.156C182.56 103.309 182.284 103.39 182.001 103.39Z" fill="#2C395D"/>
<path d="M186.872 191.846L182.823 191.845L180.897 176.227L186.873 176.227L186.872 191.846Z" fill="#FFB8B8"/>
<path d="M179.931 190.688H187.74V195.605H175.014C175.014 194.96 175.141 194.32 175.388 193.724C175.635 193.127 175.997 192.585 176.454 192.129C176.911 191.672 177.453 191.31 178.049 191.063C178.646 190.816 179.285 190.688 179.931 190.688Z" fill="#2C395D"/>
<path d="M205.775 188.818L201.877 189.912L195.8 175.396L201.554 173.781L205.775 188.818Z" fill="#FFB8B8"/>
<path d="M198.779 189.581L206.298 187.47L207.627 192.204L195.374 195.643C195.2 195.022 195.149 194.372 195.226 193.731C195.303 193.089 195.505 192.47 195.821 191.907C196.137 191.344 196.561 190.849 197.069 190.449C197.576 190.05 198.158 189.755 198.779 189.581Z" fill="#2C395D"/>
<path d="M216.686 164.851L200.966 146.299L210.505 134.725C210.645 134.555 210.82 134.418 211.019 134.325C211.219 134.231 211.436 134.183 211.656 134.184C211.876 134.184 212.093 134.234 212.291 134.328C212.49 134.423 212.665 134.561 212.804 134.731L227.238 152.446L216.686 164.851Z" fill="#EC4A42"/>
<path d="M201.6 146.435C201.832 146.018 202.119 145.634 202.454 145.295L211.559 136.064C211.916 135.701 212.396 135.485 212.905 135.46C213.946 135.411 215.652 135.516 216.127 136.657L203.835 146.715L201.6 146.435Z" fill="white"/>
<path d="M217.232 168.775C216.531 168.754 215.85 168.538 215.264 168.152L215.221 168.107L200.823 146.087L203.212 145.856L216.016 135.869C216.178 135.743 216.364 135.652 216.563 135.601C216.761 135.55 216.968 135.541 217.17 135.574C217.373 135.607 217.566 135.682 217.738 135.793C217.91 135.905 218.057 136.051 218.17 136.222L232.167 157.405C232.381 157.732 232.459 158.131 232.382 158.515C232.306 158.898 232.082 159.237 231.758 159.456L218.214 168.589C217.902 168.713 217.568 168.776 217.232 168.775Z" fill="#EC4A42"/>
<path d="M212.14 153.713C212.004 153.714 211.871 153.681 211.751 153.617C211.632 153.554 211.529 153.462 211.454 153.349L209.8 150.893C209.678 150.711 209.633 150.488 209.675 150.273C209.717 150.058 209.842 149.869 210.024 149.746L218.509 144.034C218.691 143.912 218.913 143.867 219.128 143.909C219.343 143.951 219.532 144.076 219.655 144.258L221.309 146.714C221.431 146.896 221.476 147.119 221.434 147.334C221.392 147.549 221.267 147.738 221.085 147.861L212.6 153.573C212.464 153.665 212.304 153.714 212.14 153.713Z" fill="#2C395D"/>
<path d="M180.256 189.485C179.804 189.483 179.37 189.313 179.037 189.007C178.705 188.701 178.499 188.282 178.46 187.832C177.739 179.646 174.124 138.389 173.727 130.057C173.287 120.799 180.991 106.154 181.069 106.007L181.122 105.906L184.931 106.382V106.825L188.555 107.251L195.57 107.93L197.578 132.476L198.466 149.124L206.809 183.124C206.903 183.5 206.846 183.899 206.649 184.234C206.452 184.568 206.131 184.812 205.756 184.912L198.496 186.892C198.118 186.993 197.716 186.943 197.375 186.751C197.035 186.559 196.784 186.241 196.675 185.865L189.839 161.851C189.806 161.735 189.731 161.635 189.63 161.57C189.528 161.505 189.406 161.479 189.286 161.498C189.167 161.516 189.059 161.578 188.981 161.671C188.904 161.764 188.864 161.881 188.867 162.002L189.59 185.418C189.594 185.658 189.548 185.897 189.457 186.119C189.365 186.341 189.228 186.542 189.056 186.71C187.392 188.273 182.994 189.107 180.521 189.466C180.433 189.478 180.345 189.485 180.256 189.485Z" fill="#2C395D"/>
<path d="M202.074 86.3339C200.921 85.1328 193.33 86.7834 191.645 88.5529L180.106 107.414L199.189 110.964L203.405 86.9996L202.074 86.3339Z" fill="#EC4A42"/>
<path d="M197.072 134.253C196.661 134.254 196.253 134.186 195.864 134.052C194.755 133.672 193.397 133.274 191.825 132.87C184.944 131.101 182.515 125.435 184.605 116.032L184.658 115.793C186.62 106.874 190.318 98.427 195.543 90.9355L196.352 89.773C197.329 88.3706 198.696 87.2862 200.284 86.6546C201.872 86.023 203.611 85.872 205.284 86.2206C208.38 86.8592 210.043 87.7846 210.225 88.9712C210.584 91.2996 203.668 119.446 200.678 131.44C200.478 132.244 200.014 132.958 199.36 133.468C198.707 133.978 197.901 134.255 197.072 134.253L197.072 134.253Z" fill="#2C395D"/>
<path d="M173.367 130.641C173.187 130.641 173.008 130.613 172.837 130.558L170.607 129.845C170.376 129.771 170.164 129.65 169.982 129.489C169.801 129.329 169.656 129.132 169.555 128.912C169.454 128.692 169.401 128.453 169.397 128.211C169.394 127.969 169.442 127.729 169.536 127.506L181.371 99.728C183.638 94.429 187.603 90.034 192.641 87.2343H192.641C192.714 87.1941 192.795 87.1693 192.878 87.1616C192.961 87.1538 193.045 87.1632 193.124 87.1892C193.197 87.2124 193.264 87.2506 193.321 87.3013C193.378 87.352 193.424 87.4141 193.456 87.4837C194.848 90.5455 187.272 105.036 181.185 116.679C178.068 122.641 175.376 127.79 175.07 129.258C174.988 129.649 174.774 130 174.464 130.252C174.154 130.504 173.767 130.641 173.367 130.641Z" fill="#2C395D"/>
<path d="M209.98 136.971C210.396 136.661 210.739 136.264 210.984 135.807C211.229 135.35 211.372 134.844 211.401 134.326C211.43 133.809 211.345 133.291 211.152 132.809C210.959 132.328 210.663 131.894 210.285 131.539L210.19 98.2522L202.581 99.529L205.07 131.864C204.516 132.54 204.229 133.394 204.263 134.267C204.298 135.14 204.651 135.969 205.256 136.599C205.862 137.228 206.677 137.614 207.548 137.683C208.418 137.751 209.284 137.498 209.98 136.971Z" fill="#FFB8B8"/>
<path d="M203.784 106.51C203.407 106.51 203.044 106.367 202.769 106.109C202.493 105.851 202.326 105.498 202.302 105.122L201.416 91.6909C201.333 90.3986 201.765 89.1259 202.619 88.1519C203.472 87.1779 204.677 86.5822 205.969 86.4954C206.633 86.4517 207.298 86.5439 207.924 86.7664C208.551 86.9888 209.126 87.3368 209.613 87.789C210.1 88.2413 210.49 88.7883 210.759 89.3965C211.027 90.0047 211.169 90.6613 211.175 91.3261L211.295 104.94C211.298 105.334 211.145 105.712 210.87 105.993C210.595 106.274 210.219 106.434 209.826 106.44L203.802 106.51L203.784 106.51Z" fill="#2C395D"/>
<path d="M198.339 83.0928C202.819 83.0928 206.451 79.4609 206.451 74.9807C206.451 70.5006 202.819 66.8687 198.339 66.8687C193.859 66.8687 190.227 70.5006 190.227 74.9807C190.227 79.4609 193.859 83.0928 198.339 83.0928Z" fill="#FFB8B8"/>
<path d="M205.084 80.6578C205.689 78.7324 206.245 76.4621 205.047 74.8374C204.185 73.6667 202.636 73.2135 201.183 73.1487C199.73 73.0838 198.273 73.33 196.823 73.2148C195.374 73.0996 193.842 72.5274 193.105 71.2734C192.15 69.6474 192.959 67.4077 194.494 66.3127C196.029 65.2176 198.057 65.0647 199.926 65.3198C202.29 65.6005 204.513 66.5947 206.298 68.1701C208.034 69.7729 209.166 72.0833 209.116 74.4461C209.066 76.8088 207.74 79.1617 205.629 80.2226" fill="#2C395D"/>
<path d="M203.062 62.9304C201.12 62.3322 200.224 59.7648 201.093 57.9277C201.961 56.0906 204.181 55.1286 206.197 55.3845C208.213 55.6404 209.989 56.9336 211.214 58.5547C212.439 60.1758 213.178 62.1082 213.794 64.0447C214.41 65.9811 214.923 67.9594 215.764 69.809C217.099 72.651 219.159 75.0915 221.736 76.8854C224.313 78.6794 227.316 79.7635 230.445 80.0288C231.809 80.1276 233.224 80.0568 234.467 79.4868C235.71 78.9168 236.752 77.7676 236.891 76.4073C237.599 81.239 234.788 86.374 230.336 88.3818C225.885 90.3896 220.175 89.0979 217.022 85.3697C213.94 81.7262 213.462 76.5823 213.537 71.8108C213.557 70.5024 213.605 69.1692 213.244 67.9116C212.882 66.6539 212.027 65.458 210.781 65.0586C209.775 64.7363 208.686 64.9686 207.655 65.1971C206.625 65.4256 205.53 65.6455 204.532 65.3011C203.534 64.9566 202.73 63.8217 203.133 62.8454" fill="#2C395D"/>
<path d="M235.157 196.189H147.962C147.875 196.189 147.79 196.154 147.729 196.092C147.667 196.03 147.632 195.946 147.632 195.859C147.632 195.771 147.667 195.687 147.729 195.625C147.79 195.563 147.875 195.528 147.962 195.528H235.157C235.244 195.528 235.328 195.563 235.39 195.625C235.452 195.687 235.487 195.771 235.487 195.859C235.487 195.946 235.452 196.03 235.39 196.092C235.328 196.154 235.244 196.189 235.157 196.189Z" fill="#2C395D"/>
</svg>
