<svg width="258" height="222" viewBox="0 0 258 222" fill="none" xmlns="http://www.w3.org/2000/svg">
<path d="M103.382 130.217C103.336 130.217 103.307 130.216 103.297 130.215L97.7935 130.216V129.406H103.317C103.446 129.41 106.054 129.484 108.458 126.572C112.041 122.232 114.983 111.489 108.654 84.9531C100.143 49.272 107.241 17.7498 110.688 5.85331C110.858 5.26474 110.888 4.64481 110.777 4.04251C110.665 3.44021 110.415 2.87203 110.046 2.38288C109.677 1.89372 109.198 1.49698 108.649 1.22401C108.1 0.951045 107.494 0.809327 106.881 0.810055H24.6868C24.0619 0.810892 23.446 0.958798 22.8891 1.24177C22.3322 1.52474 21.8499 1.9348 21.4815 2.43867C20.0214 4.44363 18.0176 8.29535 16.7638 15.2599L15.9651 15.1167C17.2462 8.00086 19.3151 4.03583 20.8252 1.96245C21.269 1.35531 21.8499 0.861192 22.5209 0.520215C23.1918 0.179238 23.9339 0.00100884 24.6868 2.20416e-06H106.881C107.62 -0.000708024 108.35 0.170229 109.012 0.499308C109.673 0.828386 110.25 1.30659 110.694 1.89614C111.139 2.48569 111.441 3.17043 111.575 3.89627C111.709 4.6221 111.672 5.36914 111.468 6.07837C108.039 17.9131 100.977 49.2718 109.443 84.7656C115.861 111.675 112.776 122.651 109.057 127.12C106.605 130.068 103.902 130.217 103.382 130.217Z" fill="#2C395D"/>
<path d="M88.5719 145C88.5259 145 88.497 144.999 88.4869 144.998L7.55967 144.999C6.78052 145 6.01303 144.81 5.32434 144.446C4.63565 144.083 4.04677 143.556 3.60922 142.912C3.17167 142.269 2.8988 141.528 2.81448 140.755C2.73016 139.982 2.83696 139.2 3.12554 138.477C6.06185 131.154 10.0154 113.585 3.5035 78.1934C-4.18595 36.4027 2.69815 21.2994 6.01479 16.7457C6.45859 16.1385 7.03956 15.6444 7.71053 15.3034C8.38151 14.9624 9.12359 14.7842 9.87651 14.7832H92.0706C92.81 14.7825 93.5394 14.9534 94.2013 15.2825C94.8631 15.6116 95.4392 16.0898 95.8841 16.6793C96.3289 17.2689 96.6304 17.9536 96.7646 18.6795C96.8988 19.4053 96.8621 20.1523 96.6573 20.8616C93.2283 32.6963 86.1669 64.055 94.6328 99.5488C101.051 126.458 97.9657 137.434 94.2471 141.903C91.7944 144.851 89.0919 145 88.5719 145ZM9.87651 15.5933C9.25159 15.5941 8.63568 15.742 8.07875 16.025C7.52182 16.3079 7.03958 16.718 6.67116 17.2219C3.41603 21.6912 -3.33107 36.5648 4.30161 78.047C10.5225 111.856 7.50537 129.734 3.87887 138.778C3.63446 139.375 3.54272 140.023 3.61193 140.664C3.68114 141.305 3.90912 141.919 4.27531 142.45C4.6384 142.986 5.12772 143.425 5.70036 143.728C6.27299 144.031 6.91143 144.189 7.55966 144.189H88.5068C88.6346 144.195 91.2439 144.267 93.648 141.355C97.2305 137.015 100.173 126.272 93.8433 99.7363C85.3327 64.0552 92.4309 32.533 95.8777 20.6365C96.0475 20.0479 96.0779 19.428 95.9664 18.8257C95.8549 18.2234 95.6047 17.6552 95.2355 17.1661C94.8662 16.6769 94.388 16.2802 93.8388 16.0072C93.2895 15.7342 92.6841 15.5925 92.0705 15.5933H9.87651Z" fill="#2C395D"/>
<path d="M78.0898 51.2368H13.5763C12.7154 51.2368 11.8898 50.8954 11.281 50.2877C10.6723 49.6801 10.3303 48.8559 10.3303 47.9966C10.3303 47.1372 10.6723 46.313 11.281 45.7054C11.8898 45.0977 12.7154 44.7563 13.5763 44.7563H78.0898C78.9507 44.7563 79.7764 45.0977 80.3851 45.7054C80.9938 46.313 81.3358 47.1372 81.3358 47.9966C81.3358 48.8559 80.9938 49.6801 80.3851 50.2877C79.7764 50.8954 78.9507 51.2368 78.0898 51.2368Z" fill="#EC4A42"/>
<path d="M78.0898 65.0068H13.5763C12.7154 65.0068 11.8898 64.6654 11.281 64.0578C10.6723 63.4501 10.3303 62.6259 10.3303 61.7666C10.3303 60.9072 10.6723 60.0831 11.281 59.4754C11.8898 58.8677 12.7154 58.5264 13.5763 58.5264H78.0898C78.9507 58.5264 79.7764 58.8677 80.3851 59.4754C80.9938 60.0831 81.3358 60.9072 81.3358 61.7666C81.3358 62.6259 80.9938 63.4501 80.3851 64.0578C79.7764 64.6654 78.9507 65.0068 78.0898 65.0068Z" fill="white"/>
<path d="M78.0898 78.7788H13.5763C12.7154 78.7788 11.8898 78.4374 11.281 77.8297C10.6723 77.2221 10.3303 76.3979 10.3303 75.5385C10.3303 74.6792 10.6723 73.855 11.281 73.2474C11.8898 72.6397 12.7154 72.2983 13.5763 72.2983H78.0898C78.9507 72.2983 79.7764 72.6397 80.3851 73.2474C80.9938 73.855 81.3358 74.6792 81.3358 75.5385C81.3358 76.3979 80.9938 77.2221 80.3851 77.8297C79.7764 78.4374 78.9507 78.7788 78.0898 78.7788Z" fill="white"/>
<path d="M82.9594 92.5488H18.4458C17.5849 92.5488 16.7593 92.2074 16.1505 91.5997C15.5418 90.9921 15.1998 90.1679 15.1998 89.3086C15.1998 88.4492 15.5418 87.625 16.1505 87.0174C16.7593 86.4097 17.5849 86.0684 18.4458 86.0684H82.9594C83.8202 86.0684 84.6459 86.4097 85.2546 87.0174C85.8633 87.625 86.2053 88.4492 86.2053 89.3086C86.2053 90.1679 85.8633 90.9921 85.2546 91.5997C84.6459 92.2074 83.8202 92.5488 82.9594 92.5488Z" fill="white"/>
<path d="M82.9594 106.321H18.4458C17.5849 106.321 16.7593 105.98 16.1505 105.372C15.5418 104.764 15.1998 103.94 15.1998 103.081C15.1998 102.221 15.5418 101.397 16.1505 100.79C16.7593 100.182 17.5849 99.8406 18.4458 99.8406H82.9594C83.8202 99.8406 84.6459 100.182 85.2546 100.79C85.8633 101.397 86.2053 102.221 86.2053 103.081C86.2053 103.94 85.8633 104.764 85.2546 105.372C84.6459 105.98 83.8202 106.321 82.9594 106.321Z" fill="white"/>
<path d="M44.0072 37.465H13.5763C12.7154 37.465 11.8898 37.1237 11.281 36.516C10.6723 35.9084 10.3303 35.0842 10.3303 34.2248C10.3303 33.3655 10.6723 32.5413 11.281 31.9337C11.8898 31.326 12.7154 30.9846 13.5763 30.9846H44.0072C44.8681 30.9846 45.6937 31.326 46.3025 31.9337C46.9112 32.5413 47.2532 33.3655 47.2532 34.2248C47.2532 35.0842 46.9112 35.9084 46.3025 36.516C45.6937 37.1237 44.8681 37.465 44.0072 37.465Z" fill="#EC4A42"/>
<path d="M40.0776 128.523C40.7325 125.755 43.8096 124.847 46.3254 124.949C47.9148 125.056 49.4915 125.305 51.0364 125.693C52.653 126.054 54.2538 126.482 55.8465 126.935C58.7673 127.766 61.6579 128.772 64.6268 129.422C67.0983 129.963 69.7843 130.281 72.2491 129.533C74.6184 128.815 76.6284 127.052 77.2731 124.615C77.8805 122.317 77.0465 119.806 74.8166 118.756C72.7831 117.799 70.2145 118.286 69.2066 120.451C68.0702 122.891 69.2056 125.554 71.005 127.32C72.0278 128.278 73.148 129.128 74.3475 129.854C75.5649 130.682 76.92 131.288 78.3496 131.644C80.6969 132.144 83.493 131.407 84.7034 129.168C84.9725 128.661 85.1344 128.105 85.1789 127.533C85.2506 126.755 84.0329 126.759 83.9617 127.533C83.7565 129.762 81.1414 130.806 79.1859 130.561C77.8659 130.343 76.6053 129.855 75.4833 129.127C74.4005 128.497 73.3744 127.774 72.4166 126.967C70.758 125.534 69.2032 123.176 70.3172 120.94C71.2243 119.12 73.5888 119.138 75.027 120.312C76.7686 121.734 76.4581 124.315 75.3094 126.003C74.0374 127.873 71.732 128.657 69.5583 128.741C67.1965 128.833 64.8544 128.292 62.5971 127.652C59.7923 126.857 57.0155 125.968 54.1973 125.219C52.5973 124.794 50.985 124.411 49.3562 124.112C47.8161 123.773 46.2342 123.664 44.6619 123.788C42.122 124.081 39.5292 125.556 38.9038 128.2C38.7239 128.961 39.8973 129.285 40.0776 128.523L40.0776 128.523Z" fill="#2C395D"/>
<path d="M164.439 197.225C164.509 205.2 165.094 213.163 166.191 221.063C166.229 221.34 166.271 221.618 166.31 221.895L241.13 221.478C241.35 221.202 241.566 220.923 241.776 220.641C242.474 219.707 243.129 218.747 243.73 217.753C246.618 212.967 247.941 207.363 246.616 203.497L246.592 203.437C246.306 202.59 245.855 201.808 245.265 201.136C242.244 197.741 236.135 198.307 230.591 201.047C235.563 195.614 239.523 188.758 239.824 182.638C240.119 176.668 236.992 172.404 233.6 168.78C233.489 168.66 233.378 168.544 233.266 168.427C233.212 168.368 233.155 168.311 233.101 168.251C230.455 165.489 227.37 162.767 222.905 163.096C218.008 163.458 212.579 167.553 208.772 172.324C204.965 177.092 202.435 182.508 199.871 187.795C197.303 193.078 194.525 198.496 190.405 203.011C195.986 195.965 200.485 187.949 202.147 180.152C203.809 172.355 202.346 164.867 197.373 161.195C195.863 160.114 194.116 159.411 192.278 159.142C192.063 159.107 191.845 159.078 191.624 159.052C187.02 158.53 181.523 160.119 176.846 163.918C171.695 168.102 168.124 174.304 166.348 180.191C164.571 186.078 164.382 191.746 164.439 197.225Z" fill="white"/>
<path d="M213.391 221.632L214.822 221.624C215.276 221.34 215.732 221.06 216.191 220.783C216.475 220.604 216.762 220.432 217.049 220.256C221.795 217.363 226.57 214.588 231.375 211.931C236.176 209.271 241.001 206.734 245.85 204.32C245.978 204.264 246.083 204.165 246.146 204.04C246.209 203.915 246.226 203.772 246.194 203.636C246.189 203.618 246.181 203.601 246.171 203.586C246.103 203.459 245.952 203.406 245.731 203.515C245.136 203.812 244.538 204.11 243.944 204.414C239.081 206.87 234.24 209.448 229.42 212.149C224.603 214.849 219.813 217.667 215.051 220.605C214.951 220.666 214.85 220.73 214.75 220.791C214.296 221.071 213.845 221.351 213.391 221.632Z" fill="#F6F7FA"/>
<path d="M194.944 221.736L195.829 221.731C196.028 221.452 196.224 221.173 196.424 220.895C201.112 214.332 205.799 207.77 210.486 201.207C218.16 190.463 225.832 179.719 233.501 168.975C233.547 168.918 233.58 168.851 233.601 168.781C233.666 168.543 233.491 168.403 233.267 168.428C233.172 168.442 233.082 168.475 233.001 168.526C232.92 168.577 232.852 168.645 232.799 168.725C228.497 174.75 224.195 180.773 219.895 186.794C212.261 197.484 204.628 208.173 196.996 218.861C196.51 219.539 196.025 220.221 195.539 220.9C195.34 221.178 195.14 221.457 194.944 221.736Z" fill="#F6F7FA"/>
<path d="M175.234 216.606C175.279 218.094 175.378 219.559 175.507 221.01C175.532 221.287 175.557 221.565 175.582 221.842L176.51 221.837C176.482 221.56 176.453 221.282 176.428 221.005C176.232 218.908 176.093 216.788 176.074 214.611C176.049 208.573 176.639 202.549 177.833 196.631C179.103 190.258 180.926 184.008 183.281 177.951C185.754 171.563 188.735 165.383 192.196 159.47C192.261 159.373 192.29 159.257 192.278 159.141C192.239 158.877 191.887 158.799 191.624 159.051C191.572 159.101 191.527 159.157 191.491 159.219C191.062 159.954 190.642 160.692 190.23 161.431C186.896 167.377 184.043 173.579 181.698 179.977C179.463 186.054 177.764 192.313 176.618 198.685C175.545 204.596 175.081 210.6 175.234 216.606Z" fill="#F6F7FA"/>
<path d="M84.8023 128.812C84.6484 128.684 84.5359 128.514 84.4789 128.322C84.4219 128.13 84.4231 127.926 84.4822 127.735C84.5413 127.544 84.6557 127.375 84.811 127.249C84.9663 127.123 85.1556 127.045 85.3549 127.026C87.568 126.813 89.8014 127.041 91.9251 127.698L113.558 134.367C113.838 134.454 114.098 134.594 114.323 134.781C114.549 134.968 114.736 135.197 114.872 135.456C115.009 135.714 115.094 135.997 115.121 136.289C115.148 136.58 115.118 136.874 115.031 137.153C114.945 137.433 114.804 137.692 114.617 137.918C114.43 138.143 114.2 138.329 113.941 138.466C113.682 138.602 113.398 138.687 113.107 138.714C112.815 138.741 112.521 138.711 112.241 138.624L90.608 131.955C88.483 131.303 86.5094 130.234 84.8023 128.812Z" fill="#2C395D"/>
<path d="M173.478 156.516C172.89 156.269 172.363 155.898 171.935 155.427C171.507 154.956 171.188 154.397 170.999 153.789C170.811 153.181 170.758 152.54 170.845 151.91C170.932 151.279 171.157 150.676 171.502 150.142L167.794 130.785L177.245 130.049L177.815 148.983C178.676 149.623 179.272 150.555 179.49 151.603C179.708 152.652 179.533 153.744 178.998 154.673C178.463 155.601 177.606 156.301 176.589 156.641C175.571 156.981 174.464 156.936 173.478 156.516Z" fill="#FFB8B8"/>
<path d="M167.211 146.526L157.585 101.778C157.19 99.9399 157.542 98.0205 158.565 96.4419C159.587 94.8632 161.196 93.7547 163.037 93.3601C164.878 92.9655 166.801 93.3172 168.382 94.3378C169.964 95.3584 171.074 96.9643 171.47 98.8022L181.095 143.55C181.196 144.023 181.105 144.516 180.843 144.922C180.58 145.328 180.167 145.613 179.693 145.715L169.379 147.926C169.145 147.976 168.903 147.98 168.667 147.937C168.431 147.893 168.206 147.804 168.004 147.674C167.803 147.544 167.629 147.376 167.493 147.179C167.357 146.982 167.261 146.76 167.211 146.526Z" fill="#EC4A42"/>
<path d="M151.412 216.918H146.438L144.072 197.765L151.414 197.766L151.412 216.918Z" fill="#FFB8B8"/>
<path d="M142.885 215.499H152.478V221.529H136.845C136.845 220.737 137.001 219.953 137.305 219.221C137.608 218.49 138.053 217.825 138.614 217.265C139.175 216.705 139.841 216.261 140.573 215.958C141.306 215.655 142.092 215.499 142.885 215.499Z" fill="#2C395D"/>
<path d="M168.047 216.512H163.073L160.707 197.36L168.049 197.36L168.047 216.512Z" fill="#FFB8B8"/>
<path d="M159.52 215.094H169.113V221.123H153.48C153.48 220.331 153.636 219.547 153.94 218.816C154.243 218.084 154.688 217.419 155.249 216.86C155.81 216.3 156.476 215.855 157.209 215.552C157.941 215.249 158.727 215.094 159.52 215.094Z" fill="#2C395D"/>
<path d="M145.452 213.347C145.266 213.194 145.112 213.005 144.999 212.792C144.886 212.58 144.818 212.346 144.796 212.106L139.013 148.607C138.991 148.36 139.019 148.112 139.096 147.876C139.173 147.641 139.297 147.424 139.461 147.238C139.625 147.052 139.824 146.902 140.048 146.795C140.272 146.689 140.516 146.63 140.763 146.62L169.766 145.534C170.017 145.525 170.267 145.568 170.501 145.659C170.735 145.751 170.947 145.889 171.125 146.067C171.303 146.244 171.442 146.456 171.534 146.689C171.626 146.922 171.668 147.172 171.659 147.423L169.341 210.678C169.324 211.121 169.146 211.543 168.841 211.864C168.535 212.186 168.123 212.386 167.681 212.427L161.833 212.958C161.591 212.98 161.347 212.953 161.114 212.879C160.882 212.805 160.668 212.686 160.482 212.528C160.297 212.37 160.146 212.177 160.036 211.96C159.927 211.743 159.863 211.506 159.846 211.263L157.163 171.078C157.161 171.001 157.143 170.925 157.112 170.854C157.08 170.784 157.035 170.72 156.978 170.668C156.922 170.615 156.855 170.574 156.783 170.547C156.71 170.52 156.633 170.508 156.556 170.511H156.553C156.476 170.508 156.398 170.521 156.326 170.548C156.253 170.575 156.186 170.617 156.13 170.67C156.074 170.723 156.028 170.787 155.997 170.858C155.966 170.929 155.949 171.005 155.948 171.083L153.546 211.539C153.522 211.972 153.343 212.383 153.042 212.695C152.741 213.008 152.338 213.203 151.905 213.245L146.796 213.755C146.556 213.78 146.314 213.756 146.083 213.686C145.852 213.616 145.638 213.501 145.452 213.347H145.452Z" fill="#2C395D"/>
<path d="M156.609 83.8493C162.113 83.8493 166.574 79.3955 166.574 73.9015C166.574 68.4074 162.113 63.9536 156.609 63.9536C151.105 63.9536 146.643 68.4074 146.643 73.9015C146.643 79.3955 151.105 83.8493 156.609 83.8493Z" fill="#FFB8B8"/>
<path d="M137.418 149.036C137.241 148.835 137.11 148.597 137.036 148.339C136.963 148.082 136.947 147.811 136.991 147.546C138.831 136.383 137.794 119.974 136.6 108.175C136.288 105.045 136.808 101.888 138.108 99.0224C139.407 96.1568 141.44 93.6836 144.001 91.8516L149.206 87.3987C149.552 87.1061 149.993 86.9502 150.446 86.9604L163.376 87.3291C163.842 87.3418 164.285 87.5328 164.615 87.8627L166.613 92.2792L166.633 92.2942C169.014 94.0411 170.924 96.3498 172.192 99.0137C173.461 101.678 174.048 104.614 173.902 107.56L171.999 146.822C171.975 147.278 171.78 147.709 171.454 148.03C171.127 148.351 170.693 148.538 170.235 148.555L138.852 149.656C138.832 149.656 138.811 149.657 138.791 149.657C138.531 149.657 138.274 149.602 138.037 149.495C137.8 149.388 137.589 149.231 137.418 149.036Z" fill="#EC4A42"/>
<path d="M99.7745 132.652C99.7589 132.016 99.8831 131.384 100.138 130.802C100.394 130.219 100.774 129.699 101.252 129.279C101.731 128.858 102.296 128.548 102.907 128.369C103.519 128.191 104.162 128.148 104.792 128.244L120.967 116.945L125.507 125.251L108.435 133.52C108.202 134.565 107.594 135.489 106.725 136.117C105.856 136.745 104.786 137.033 103.718 136.926C102.651 136.819 101.66 136.324 100.933 135.537C100.206 134.749 99.7939 133.723 99.7745 132.652L99.7745 132.652Z" fill="#FFB8B8"/>
<path d="M113.386 134.616C113.149 134.58 112.921 134.498 112.716 134.374C112.511 134.25 112.333 134.086 112.191 133.893L105.949 125.404C105.663 125.014 105.544 124.526 105.617 124.049C105.69 123.571 105.95 123.142 106.34 122.856L143.302 95.7742C144.82 94.6618 146.718 94.1971 148.58 94.4821C149.502 94.6233 150.386 94.9443 151.184 95.4268C151.981 95.9093 152.676 96.5438 153.227 97.2942C153.779 98.0446 154.177 98.8961 154.399 99.8001C154.622 100.704 154.663 101.643 154.522 102.563C154.38 103.483 154.059 104.366 153.575 105.162C153.092 105.958 152.456 106.652 151.705 107.202L114.743 134.284C114.432 134.513 114.054 134.637 113.667 134.637C113.573 134.637 113.479 134.63 113.386 134.616Z" fill="#EC4A42"/>
<path d="M157.119 82.758C158.441 81.1404 158.296 78.6766 157.235 76.8778C156.174 75.079 154.374 73.8401 152.521 72.8725C150.668 71.9048 148.7 71.1439 146.957 69.9917C145.213 68.8396 145.289 63.9619 144.825 61.9267L145.932 62.2949C145.507 61.7514 145.37 60.1455 144.944 59.602C146.196 59.7254 147.158 60.9113 148.409 61.0347L147.687 59.1001C151.977 58.8361 154.645 61.8122 158.935 61.5482C161.061 61.4173 163.37 61.3346 165.117 62.5498C166.636 63.6059 167.405 65.4337 167.909 67.2113C168.992 71.028 169.161 75.3032 167.29 78.8031C165.419 82.3029 161.108 84.6613 157.341 83.3975L157.119 82.758Z" fill="#2C395D"/>
<path d="M102.405 221.751H256.994C257.101 221.751 257.205 221.709 257.281 221.633C257.357 221.557 257.399 221.454 257.399 221.346C257.399 221.239 257.357 221.136 257.281 221.06C257.205 220.984 257.101 220.941 256.994 220.941H102.405C102.297 220.941 102.194 220.984 102.118 221.06C102.042 221.136 101.999 221.239 101.999 221.346C101.999 221.454 102.042 221.557 102.118 221.633C102.194 221.709 102.297 221.751 102.405 221.751Z" fill="#2C395D"/>
</svg>
