<svg width="394" height="360" viewBox="0 0 394 360" fill="none" xmlns="http://www.w3.org/2000/svg">
<path d="M339.55 33.0396L9.41022 129.229L18.1547 159.241L348.294 63.0523L339.55 33.0396Z" fill="#2C395D"/>
<path d="M48.8541 267.09L0.194119 100.079C-0.166633 98.841 -0.020719 97.5102 0.599738 96.3796C1.2202 95.2489 2.26437 94.4111 3.50259 94.0503L325.639 0.193089C326.877 -0.16645 328.207 -0.0200421 329.337 0.600193C330.468 1.22043 331.306 2.26381 331.668 3.5013L374.777 151.461L373.443 151.849L330.334 3.89003C330.075 3.00647 329.476 2.26162 328.669 1.81866C327.862 1.3757 326.912 1.27075 326.027 1.52681L3.89123 95.384C3.00678 95.6418 2.26094 96.2402 1.81776 97.0479C1.37458 97.8555 1.27035 98.8061 1.52802 99.6905L50.188 266.701L48.8541 267.09Z" fill="#2C395D"/>
<path d="M303.478 152.149C302.5 152.148 301.55 151.83 300.768 151.244C299.986 150.658 299.415 149.834 299.141 148.896L290.979 120.884C290.646 119.734 290.782 118.499 291.358 117.45C291.933 116.4 292.902 115.622 294.051 115.286L322.063 107.124C323.213 106.791 324.448 106.927 325.497 107.503C326.547 108.079 327.325 109.048 327.661 110.197L335.823 138.209C336.156 139.358 336.02 140.593 335.444 141.643C334.868 142.692 333.9 143.471 332.751 143.807L304.739 151.968C304.329 152.088 303.904 152.149 303.478 152.149Z" fill="#EC4A42"/>
<path d="M48.1019 100.596C48.018 100.308 47.9182 100.025 47.8031 99.7483C47.0198 97.8474 45.5618 96.3029 43.709 95.4117C41.8562 94.5205 39.7394 94.3455 37.7654 94.9202C35.7914 95.4949 34.0994 96.7789 33.0146 98.5253C31.9297 100.272 31.5286 102.358 31.8882 104.382C31.9387 104.677 32.0059 104.969 32.0896 105.257C32.5969 106.989 33.6515 108.509 35.0954 109.591C36.5393 110.673 38.2948 111.258 40.0991 111.259C40.8869 111.261 41.6708 111.149 42.4264 110.926C44.5472 110.306 46.3357 108.871 47.3996 106.934C48.4636 104.998 48.7161 102.718 48.1019 100.596ZM42.0373 109.592C40.2687 110.105 38.3686 109.896 36.7538 109.011C35.1391 108.125 33.9414 106.635 33.4234 104.868C33.342 104.58 33.277 104.288 33.2287 103.993C32.9681 102.325 33.324 100.619 34.2297 99.1948C35.1354 97.7703 36.529 96.7245 38.1498 96.2528C39.7707 95.7812 41.5079 95.9161 43.0365 96.6323C44.5651 97.3486 45.7804 98.597 46.4554 100.144C46.5812 100.416 46.6858 100.697 46.7681 100.985C47.2808 102.754 47.0705 104.653 46.1835 106.267C45.2965 107.881 43.8053 109.077 42.0373 109.592V109.592Z" fill="#EC4A42"/>
<path d="M27.6551 106.548C27.2105 105.022 27.2532 103.394 27.7773 101.893C28.3013 100.392 29.2805 99.0911 30.5786 98.1726C29.3624 98.1134 28.1498 98.3456 27.0416 98.8499C25.9333 99.3542 24.9617 100.116 24.2075 101.072C23.4534 102.028 22.9385 103.15 22.7059 104.345C22.4733 105.54 22.5296 106.774 22.8702 107.943C23.2108 109.112 23.8257 110.182 24.6639 111.065C25.502 111.949 26.5391 112.619 27.6887 113.02C28.8382 113.421 30.067 113.542 31.2726 113.372C32.4783 113.202 33.6259 112.746 34.6199 112.043C33.0316 111.966 31.5071 111.395 30.2587 110.41C29.0103 109.425 28.1002 108.075 27.6551 106.548Z" fill="#EC4A42"/>
<path d="M243.606 140.976C243.458 140.445 243.207 139.947 242.867 139.513C242.526 139.078 242.104 138.715 241.623 138.444C241.142 138.173 240.613 138 240.065 137.934C239.517 137.867 238.962 137.91 238.431 138.059L192.311 150.959L187.344 152.348H218.535L223.502 150.959L240.695 146.152C241.767 145.85 242.675 145.136 243.221 144.166C243.767 143.196 243.905 142.048 243.606 140.976Z" fill="white"/>
<path d="M210.977 131.343C210.676 130.27 209.962 129.361 208.992 128.816C208.021 128.27 206.874 128.132 205.801 128.432L136.598 147.786C135.631 148.06 134.793 148.67 134.237 149.507C133.68 150.344 133.441 151.352 133.562 152.35H151.478L156.451 150.96L208.066 136.525C209.139 136.223 210.048 135.507 210.594 134.536C211.139 133.564 211.277 132.416 210.977 131.343Z" fill="white"/>
<path d="M389.138 150.958H53.6065C52.3172 150.959 51.0812 151.472 50.1696 152.384C49.2579 153.296 48.7452 154.532 48.7437 155.821V354.5C48.7451 355.789 49.2579 357.025 50.1695 357.936C51.0812 358.848 52.3172 359.361 53.6065 359.362H389.138C390.427 359.361 391.663 358.848 392.575 357.936C393.486 357.025 393.999 355.789 394 354.5V155.821C393.999 154.532 393.486 153.296 392.574 152.384C391.663 151.472 390.427 150.96 389.138 150.958ZM392.611 354.5C392.611 355.421 392.245 356.304 391.593 356.955C390.942 357.607 390.059 357.973 389.138 357.973H53.6065C52.6854 357.973 51.8021 357.607 51.1508 356.955C50.4995 356.304 50.1334 355.421 50.1331 354.5V155.821C50.1335 154.9 50.4995 154.016 51.1508 153.365C51.8021 152.714 52.6854 152.348 53.6065 152.347H389.138C390.059 152.348 390.942 152.714 391.593 153.365C392.245 154.016 392.611 154.9 392.611 155.821V354.5Z" fill="#2C395D"/>
<path d="M86.2541 178.052C84.6053 178.052 82.9936 177.563 81.6227 176.647C80.2519 175.731 79.1834 174.429 78.5525 172.906C77.9215 171.383 77.7564 169.707 78.0781 168.09C78.3997 166.473 79.1937 164.987 80.3595 163.822C81.5254 162.656 83.0107 161.862 84.6278 161.54C86.2448 161.218 87.921 161.383 89.4442 162.014C90.9674 162.645 92.2694 163.714 93.1854 165.085C94.1014 166.456 94.5902 168.067 94.5902 169.716C94.5877 171.926 93.7086 174.045 92.1458 175.608C90.5831 177.171 88.4642 178.05 86.2541 178.052ZM86.2541 162.769C84.8801 162.769 83.537 163.177 82.3946 163.94C81.2522 164.703 80.3619 165.788 79.8361 167.058C79.3103 168.327 79.1727 169.724 79.4408 171.071C79.7088 172.419 80.3704 173.657 81.342 174.628C82.3135 175.6 83.5513 176.261 84.8988 176.529C86.2464 176.797 87.6431 176.66 88.9125 176.134C90.1819 175.608 91.2668 174.718 92.0301 173.576C92.7935 172.433 93.2009 171.09 93.2009 169.716C93.1988 167.874 92.4663 166.109 91.1639 164.806C89.8616 163.504 88.0958 162.771 86.2541 162.769Z" fill="#EC4A42"/>
<path d="M73.2963 169.717C73.2966 168.127 73.7928 166.577 74.7158 165.282C75.6389 163.987 76.9428 163.012 78.446 162.493C77.295 162.096 76.0658 161.98 74.8607 162.154C73.6557 162.328 72.5097 162.788 71.5183 163.495C70.5268 164.202 69.7186 165.135 69.161 166.217C68.6033 167.3 68.3124 168.5 68.3124 169.717C68.3124 170.935 68.6033 172.135 69.161 173.217C69.7186 174.299 70.5268 175.233 71.5183 175.94C72.5097 176.646 73.6557 177.106 74.8607 177.28C76.0658 177.454 77.295 177.338 78.446 176.941C76.9428 176.422 75.6389 175.447 74.7158 174.153C73.7928 172.858 73.2965 171.307 73.2963 169.717Z" fill="#EC4A42"/>
<path d="M120.045 268.206C118.388 268.204 116.799 267.545 115.627 266.373C114.455 265.201 113.795 263.611 113.793 261.954V243.197C113.793 241.539 114.452 239.949 115.625 238.777C116.797 237.604 118.387 236.945 120.045 236.945C121.704 236.945 123.294 237.604 124.466 238.777C125.639 239.949 126.298 241.539 126.298 243.197V261.954C126.296 263.611 125.636 265.201 124.464 266.373C123.292 267.545 121.703 268.204 120.045 268.206Z" fill="#EC4A42"/>
<path d="M136.718 268.206C135.06 268.204 133.471 267.545 132.299 266.373C131.127 265.201 130.467 263.611 130.466 261.954V243.197C130.466 241.539 131.124 239.949 132.297 238.777C133.469 237.604 135.06 236.945 136.718 236.945C138.376 236.945 139.966 237.604 141.139 238.777C142.311 239.949 142.97 241.539 142.97 243.197V261.954C142.968 263.611 142.309 265.201 141.137 266.373C139.964 267.545 138.375 268.204 136.718 268.206Z" fill="#EC4A42"/>
<path d="M153.391 268.206C151.733 268.204 150.144 267.545 148.972 266.373C147.8 265.201 147.141 263.611 147.139 261.954V243.197C147.139 241.539 147.797 239.949 148.97 238.777C150.142 237.604 151.733 236.945 153.391 236.945C155.049 236.945 156.639 237.604 157.812 238.777C158.984 239.949 159.643 241.539 159.643 243.197V261.954C159.641 263.611 158.982 265.201 157.81 266.373C156.638 267.545 155.048 268.204 153.391 268.206Z" fill="#EC4A42"/>
<path d="M179.092 268.206C177.435 268.204 175.846 267.545 174.674 266.373C173.502 265.201 172.842 263.611 172.84 261.954V243.197C172.84 241.539 173.499 239.949 174.671 238.777C175.844 237.604 177.434 236.945 179.092 236.945C180.751 236.945 182.341 237.604 183.513 238.777C184.686 239.949 185.345 241.539 185.345 243.197V261.954C185.343 263.611 184.683 265.201 183.511 266.373C182.339 267.545 180.75 268.204 179.092 268.206Z" fill="#EC4A42"/>
<path d="M195.766 268.206C194.108 268.204 192.519 267.545 191.347 266.373C190.175 265.201 189.515 263.611 189.513 261.954V243.197C189.513 241.539 190.172 239.949 191.345 238.777C192.517 237.604 194.107 236.945 195.766 236.945C197.424 236.945 199.014 237.604 200.186 238.777C201.359 239.949 202.018 241.539 202.018 243.197V261.954C202.016 263.611 201.356 265.201 200.184 266.373C199.012 267.545 197.423 268.204 195.766 268.206Z" fill="#EC4A42"/>
<path d="M212.438 268.206C210.78 268.204 209.191 267.545 208.019 266.373C206.847 265.201 206.188 263.611 206.186 261.954V243.197C206.186 241.539 206.844 239.949 208.017 238.777C209.189 237.604 210.78 236.945 212.438 236.945C214.096 236.945 215.686 237.604 216.859 238.777C218.031 239.949 218.69 241.539 218.69 243.197V261.954C218.688 263.611 218.029 265.201 216.857 266.373C215.684 267.545 214.095 268.204 212.438 268.206Z" fill="#EC4A42"/>
<path d="M238.141 268.206C236.484 268.204 234.895 267.545 233.722 266.373C232.55 265.201 231.891 263.611 231.889 261.954V243.197C231.889 241.539 232.548 239.949 233.72 238.777C234.893 237.604 236.483 236.945 238.141 236.945C239.799 236.945 241.39 237.604 242.562 238.777C243.735 239.949 244.393 241.539 244.393 243.197V261.954C244.391 263.611 243.732 265.201 242.56 266.373C241.388 267.545 239.799 268.204 238.141 268.206Z" fill="#EC4A42"/>
<path d="M254.813 268.206C253.156 268.204 251.567 267.545 250.395 266.373C249.223 265.201 248.563 263.611 248.561 261.954V243.197C248.561 241.539 249.22 239.949 250.392 238.777C251.565 237.604 253.155 236.945 254.813 236.945C256.472 236.945 258.062 237.604 259.234 238.777C260.407 239.949 261.066 241.539 261.066 243.197V261.954C261.064 263.611 260.404 265.201 259.232 266.373C258.06 267.545 256.471 268.204 254.813 268.206Z" fill="#EC4A42"/>
<path d="M271.486 268.206C269.828 268.204 268.239 267.545 267.067 266.373C265.895 265.201 265.235 263.611 265.234 261.954V243.197C265.234 241.539 265.892 239.949 267.065 238.777C268.237 237.604 269.827 236.945 271.486 236.945C273.144 236.945 274.734 237.604 275.907 238.777C277.079 239.949 277.738 241.539 277.738 243.197V261.954C277.736 263.611 277.077 265.201 275.904 266.373C274.732 267.545 273.143 268.204 271.486 268.206Z" fill="#EC4A42"/>
<path d="M297.189 268.206C295.532 268.204 293.942 267.545 292.77 266.373C291.598 265.201 290.939 263.611 290.937 261.954V243.197C290.937 241.539 291.596 239.949 292.768 238.777C293.941 237.604 295.531 236.945 297.189 236.945C298.847 236.945 300.438 237.604 301.61 238.777C302.783 239.949 303.441 241.539 303.441 243.197V261.954C303.439 263.611 302.78 265.201 301.608 266.373C300.436 267.545 298.847 268.204 297.189 268.206Z" fill="#EC4A42"/>
<path d="M313.862 268.206C312.205 268.204 310.616 267.545 309.443 266.373C308.271 265.201 307.612 263.611 307.61 261.954V243.197C307.61 241.539 308.269 239.949 309.441 238.777C310.614 237.604 312.204 236.945 313.862 236.945C315.52 236.945 317.111 237.604 318.283 238.777C319.456 239.949 320.114 241.539 320.114 243.197V261.954C320.112 263.611 319.453 265.201 318.281 266.373C317.109 267.545 315.52 268.204 313.862 268.206Z" fill="#EC4A42"/>
<path d="M330.533 268.206C328.876 268.204 327.287 267.545 326.115 266.373C324.943 265.201 324.283 263.611 324.281 261.954V243.197C324.281 241.539 324.94 239.949 326.113 238.777C327.285 237.604 328.875 236.945 330.533 236.945C332.192 236.945 333.782 237.604 334.954 238.777C336.127 239.949 336.786 241.539 336.786 243.197V261.954C336.784 263.611 336.124 265.201 334.952 266.373C333.78 267.545 332.191 268.204 330.533 268.206Z" fill="#EC4A42"/>
<path d="M162.433 337.792H72.5134C71.3992 337.792 70.3307 337.35 69.5428 336.562C68.755 335.774 68.3124 334.705 68.3124 333.591C68.3124 332.477 68.755 331.408 69.5428 330.621C70.3307 329.833 71.3992 329.39 72.5134 329.39H162.433C163.547 329.39 164.616 329.833 165.404 330.621C166.191 331.408 166.634 332.477 166.634 333.591C166.634 334.705 166.191 335.774 165.404 336.562C164.616 337.35 163.547 337.792 162.433 337.792Z" fill="white"/>
<path d="M133.604 319.728H101.343C100.228 319.728 99.1599 319.285 98.372 318.497C97.5842 317.709 97.1416 316.641 97.1416 315.527C97.1416 314.413 97.5842 313.344 98.372 312.556C99.1599 311.768 100.228 311.326 101.343 311.326H133.604C134.718 311.326 135.787 311.768 136.574 312.556C137.362 313.344 137.805 314.413 137.805 315.527C137.805 316.641 137.362 317.709 136.574 318.497C135.787 319.285 134.718 319.728 133.604 319.728Z" fill="white"/>
<path d="M392.36 192.488H49.8825V193.877H392.36V192.488Z" fill="#2C395D"/>
</svg>
