<svg width="394" height="302" viewBox="0 0 394 302" fill="none" xmlns="http://www.w3.org/2000/svg">
<path d="M90.722 209.002L121.227 161.147L52.9103 117.812L17.6299 173.158L74.1362 209.002H90.722Z" fill="white"/>
<path d="M133.95 223.93H58.3887V208.756H133.95V223.93ZM59.37 222.951H132.969V209.735H59.37V222.951Z" fill="#2C395D"/>
<path d="M124.627 221.238C127.337 221.238 129.534 219.047 129.534 216.343C129.534 213.64 127.337 211.449 124.627 211.449C121.917 211.449 119.721 213.64 119.721 216.343C119.721 219.047 121.917 221.238 124.627 221.238Z" fill="#EC4A42"/>
<path d="M110.89 221.238C113.599 221.238 115.796 219.047 115.796 216.343C115.796 213.64 113.599 211.449 110.89 211.449C108.18 211.449 105.983 213.64 105.983 216.343C105.983 219.047 108.18 221.238 110.89 221.238Z" fill="#EC4A42"/>
<path d="M97.1503 221.238C99.8601 221.238 102.057 219.047 102.057 216.343C102.057 213.64 99.8601 211.449 97.1503 211.449C94.4404 211.449 92.2437 213.64 92.2437 216.343C92.2437 219.047 94.4404 221.238 97.1503 221.238Z" fill="#EC4A42"/>
<path d="M83.4125 221.238C86.1223 221.238 88.3191 219.047 88.3191 216.343C88.3191 213.64 86.1223 211.449 83.4125 211.449C80.7026 211.449 78.5059 213.64 78.5059 216.343C78.5059 219.047 80.7026 221.238 83.4125 221.238Z" fill="#EC4A42"/>
<path d="M69.6742 221.238C72.384 221.238 74.5808 219.047 74.5808 216.343C74.5808 213.64 72.384 211.449 69.6742 211.449C66.9643 211.449 64.7676 213.64 64.7676 216.343C64.7676 219.047 66.9643 221.238 69.6742 221.238Z" fill="#EC4A42"/>
<path d="M223.741 55.3095V18.1102H242.386V0H151.123V91.0405H229.138V82.1393C229.138 80.48 229.466 78.8369 230.102 77.304C230.739 75.771 231.672 74.3781 232.848 73.2048C234.024 72.0315 235.42 71.1008 236.957 70.4658C238.494 69.8308 240.141 69.504 241.804 69.504H242.386V55.3095H223.741Z" fill="white"/>
<path d="M324.816 234.943H263.975V247.669H324.816V234.943Z" fill="#4267B2"/>
<path d="M338.065 172.292H248.765V184.039H338.065V172.292Z" fill="white"/>
<path d="M381.733 301.021H0V302H381.733V301.021Z" fill="#2C395D"/>
<path d="M353.366 301.999H241.804C238.316 301.995 234.972 300.611 232.505 298.151C230.039 295.69 228.651 292.354 228.647 288.875V82.1389C228.651 78.6592 230.039 75.3232 232.505 72.8627C234.972 70.4022 238.316 69.0181 241.804 69.0142H353.366C356.854 69.0181 360.198 70.4022 362.665 72.8627C365.131 75.3232 366.519 78.6592 366.523 82.1389V288.875C366.519 292.354 365.131 295.69 362.665 298.151C360.198 300.611 356.854 301.995 353.366 301.999V301.999ZM241.804 69.9931C238.576 69.9968 235.481 71.2776 233.199 73.5546C230.916 75.8315 229.632 78.9188 229.629 82.1389V288.875C229.632 292.095 230.916 295.182 233.199 297.459C235.481 299.736 238.576 301.017 241.804 301.021H353.366C356.594 301.017 359.689 299.736 361.971 297.459C364.254 295.182 365.538 292.095 365.542 288.875V82.1389C365.538 78.9188 364.254 75.8315 361.971 73.5546C359.689 71.2776 356.594 69.9968 353.366 69.9931H241.804Z" fill="#2C395D"/>
<path d="M284.338 78.8042C283.755 78.8042 283.186 78.632 282.702 78.3093C282.218 77.9866 281.84 77.5279 281.618 76.9913C281.395 76.4547 281.337 75.8642 281.45 75.2945C281.564 74.7248 281.844 74.2015 282.256 73.7908C282.668 73.3801 283.192 73.1004 283.763 72.9871C284.334 72.8738 284.926 72.9319 285.464 73.1542C286.002 73.3765 286.462 73.7529 286.785 74.2359C287.109 74.7188 287.281 75.2866 287.281 75.8675C287.281 76.6461 286.97 77.3926 286.418 77.9431C285.866 78.4937 285.118 78.8034 284.338 78.8042V78.8042ZM284.338 73.9096C283.949 73.9096 283.57 74.0244 283.247 74.2396C282.924 74.4547 282.673 74.7605 282.524 75.1182C282.376 75.476 282.337 75.8696 282.413 76.2494C282.488 76.6292 282.675 76.9781 282.95 77.2519C283.224 77.5257 283.574 77.7121 283.955 77.7877C284.335 77.8632 284.73 77.8245 285.089 77.6763C285.447 77.5281 285.754 77.2772 285.969 76.9552C286.185 76.6332 286.3 76.2547 286.3 75.8675C286.3 75.3484 286.093 74.8507 285.725 74.4836C285.357 74.1166 284.858 73.9101 284.338 73.9096V73.9096Z" fill="#2C395D"/>
<path d="M313.286 75.377H291.697V76.3559H313.286V75.377Z" fill="#2C395D"/>
<path d="M357.691 83.209V122.366C347.281 122.366 337.297 118.24 329.936 110.897C322.575 103.553 318.439 93.594 318.438 83.209H357.691Z" fill="#4267B2"/>
<path d="M358.182 288.784H236.989V82.7192H358.182V288.784ZM237.97 287.805H357.2V83.6982H237.97V287.805Z" fill="#2C395D"/>
<path opacity="0.1" d="M329.233 119.919C336.549 119.919 342.48 114.002 342.48 106.703C342.48 99.4046 336.549 93.4878 329.233 93.4878C321.916 93.4878 315.985 99.4046 315.985 106.703C315.985 114.002 321.916 119.919 329.233 119.919Z" fill="white"/>
<path d="M327.27 121.388C334.587 121.388 340.518 115.471 340.518 108.172C340.518 100.873 334.587 94.9565 327.27 94.9565C319.954 94.9565 314.022 100.873 314.022 108.172C314.022 115.471 319.954 121.388 327.27 121.388Z" fill="#4267B2"/>
<path d="M261.031 91.0405H242.386V97.893H261.031V91.0405Z" fill="#2C395D"/>
<path d="M271.335 156.14H252.689V162.992H271.335V156.14Z" fill="#2C395D"/>
<path d="M342.971 181.592H252.689V168.866H342.971V181.592ZM253.671 180.613H341.99V169.845H253.671V180.613Z" fill="#2C395D"/>
<path d="M338.065 209.491H248.765V221.238H338.065V209.491Z" fill="white"/>
<path d="M271.335 193.339H252.689V200.191H271.335V193.339Z" fill="#2C395D"/>
<path d="M342.971 218.791H252.689V206.064H342.971V218.791ZM253.671 217.812H341.99V207.043H253.671V217.812Z" fill="#2C395D"/>
<path d="M328.742 244.732H266.919V231.027H328.742V244.732ZM267.9 243.753H327.761V232.006H267.9V243.753Z" fill="#2C395D"/>
<path d="M340.518 176.697C340.518 177.705 340.206 178.688 339.625 179.512C339.044 180.336 338.222 180.962 337.272 181.303C336.321 181.644 335.289 181.684 334.314 181.418C333.34 181.151 332.472 180.592 331.829 179.815L331.824 179.81C331.355 179.242 331.02 178.577 330.844 177.862C330.669 177.148 330.657 176.403 330.809 175.683C330.962 174.964 331.275 174.288 331.726 173.706C332.177 173.123 332.753 172.65 333.412 172.32C334.072 171.991 334.797 171.814 335.534 171.803C336.271 171.792 337.002 171.946 337.671 172.255C338.34 172.564 338.931 173.02 339.399 173.588C339.867 174.156 340.201 174.822 340.376 175.537C340.376 175.537 340.376 175.538 340.376 175.539C340.377 175.539 340.377 175.54 340.377 175.54C340.378 175.541 340.378 175.541 340.379 175.541C340.38 175.542 340.38 175.542 340.381 175.542C340.471 175.92 340.518 176.308 340.518 176.697V176.697Z" fill="#4267B2"/>
<path opacity="0.1" d="M340.518 176.697C340.518 177.704 340.206 178.687 339.625 179.512C339.044 180.336 338.222 180.961 337.272 181.302C336.321 181.643 335.288 181.683 334.314 181.417C333.34 181.151 332.472 180.591 331.828 179.814L331.823 179.81C331.733 179.431 331.687 179.043 331.686 178.654C331.686 177.647 331.998 176.664 332.579 175.839C333.16 175.015 333.982 174.39 334.932 174.049C335.883 173.708 336.916 173.667 337.89 173.934C338.864 174.2 339.732 174.76 340.376 175.537C340.376 175.537 340.376 175.538 340.376 175.538C340.376 175.539 340.377 175.54 340.377 175.54C340.377 175.54 340.378 175.541 340.379 175.541C340.379 175.541 340.38 175.541 340.381 175.541C340.471 175.92 340.517 176.307 340.518 176.697V176.697Z" fill="white"/>
<path d="M337.574 184.529C340.284 184.529 342.481 182.337 342.481 179.634C342.481 176.931 340.284 174.739 337.574 174.739C334.864 174.739 332.667 176.931 332.667 179.634C332.667 182.337 334.864 184.529 337.574 184.529Z" fill="#4267B2"/>
<path d="M340.518 213.896C340.518 214.904 340.206 215.887 339.625 216.711C339.044 217.535 338.222 218.161 337.272 218.502C336.321 218.843 335.289 218.883 334.314 218.617C333.34 218.35 332.472 217.791 331.829 217.014L331.824 217.009C331.355 216.442 331.02 215.776 330.844 215.061C330.669 214.347 330.657 213.602 330.809 212.883C330.962 212.163 331.275 211.487 331.726 210.905C332.177 210.322 332.753 209.849 333.412 209.52C334.072 209.19 334.797 209.013 335.534 209.002C336.271 208.991 337.002 209.145 337.671 209.454C338.34 209.763 338.931 210.219 339.399 210.787C339.867 211.355 340.201 212.021 340.376 212.736C340.376 212.737 340.376 212.737 340.376 212.738C340.377 212.739 340.377 212.739 340.377 212.74C340.378 212.74 340.378 212.74 340.379 212.741C340.38 212.741 340.38 212.741 340.381 212.741C340.471 213.119 340.518 213.507 340.518 213.896V213.896Z" fill="#4267B2"/>
<path opacity="0.1" d="M340.518 213.897C340.518 214.904 340.206 215.887 339.625 216.712C339.044 217.536 338.222 218.161 337.272 218.502C336.321 218.844 335.288 218.884 334.314 218.617C333.34 218.351 332.472 217.791 331.828 217.015L331.823 217.01C331.733 216.631 331.687 216.244 331.686 215.855C331.686 214.847 331.998 213.864 332.579 213.04C333.16 212.215 333.982 211.59 334.932 211.249C335.883 210.908 336.916 210.868 337.89 211.134C338.864 211.4 339.732 211.96 340.376 212.737C340.376 212.737 340.376 212.738 340.376 212.739C340.376 212.739 340.377 212.74 340.377 212.74C340.377 212.741 340.378 212.741 340.379 212.741C340.379 212.741 340.38 212.742 340.381 212.742C340.471 213.12 340.517 213.508 340.518 213.897V213.897Z" fill="white"/>
<path d="M337.574 221.728C340.284 221.728 342.481 219.536 342.481 216.833C342.481 214.13 340.284 211.938 337.574 211.938C334.864 211.938 332.667 214.13 332.667 216.833C332.667 219.536 334.864 221.728 337.574 221.728Z" fill="#4267B2"/>
<path d="M255.143 23.4946H229.628V48.9468H255.143V23.4946Z" fill="white"/>
<path d="M329.233 42.0938C328.068 42.0938 326.93 41.7494 325.961 41.104C324.993 40.4586 324.239 39.5412 323.793 38.468C323.347 37.3947 323.231 36.2137 323.458 35.0744C323.685 33.935 324.246 32.8885 325.069 32.067C325.893 31.2456 326.942 30.6862 328.084 30.4595C329.226 30.2329 330.41 30.3492 331.486 30.7938C332.562 31.2383 333.481 31.9912 334.128 32.9571C334.775 33.923 335.121 35.0586 335.121 36.2203C335.119 37.7775 334.498 39.2705 333.394 40.3716C332.29 41.4727 330.794 42.0921 329.233 42.0938V42.0938ZM329.233 31.3256C328.262 31.3256 327.314 31.6127 326.507 32.1505C325.7 32.6883 325.071 33.4528 324.7 34.3472C324.328 35.2415 324.231 36.2257 324.42 37.1752C324.61 38.1246 325.077 38.9968 325.763 39.6813C326.449 40.3658 327.324 40.832 328.275 41.0209C329.227 41.2097 330.214 41.1128 331.11 40.7423C332.007 40.3719 332.773 39.7445 333.312 38.9396C333.851 38.1347 334.139 37.1883 334.139 36.2203C334.138 34.9226 333.62 33.6785 332.7 32.7609C331.781 31.8433 330.533 31.3271 329.233 31.3256V31.3256Z" fill="#2C395D"/>
<path d="M199.699 123.834H186.941V111.108H199.699V123.834ZM187.923 122.856H198.717V112.087H187.923V122.856Z" fill="#2C395D"/>
<path d="M394 218.791H381.243V206.064H394V218.791ZM382.224 217.812H393.019V207.043H382.224V217.812Z" fill="#2C395D"/>
<path d="M142.292 133.461L144.482 134.637L151.931 138.642L163.957 145.106L170.966 132.135C171.626 130.916 172.038 129.579 172.18 128.201C172.321 126.823 172.189 125.431 171.791 124.104C171.392 122.776 170.735 121.541 169.858 120.467C168.98 119.394 167.898 118.504 166.675 117.848C164.062 116.44 161.067 115.896 158.124 116.294C155.18 116.692 152.44 118.013 150.296 120.065L150.293 120.068C149.238 121.078 148.348 122.247 147.655 123.531L142.292 133.461Z" fill="#2C395D"/>
<path d="M175.117 265.748L173.648 281.871L168.137 282.603L164.464 264.282L175.117 265.748Z" fill="#FFB8B8"/>
<path d="M166.668 282.603C166.668 282.603 173.647 278.939 175.117 281.871C175.117 281.871 174.015 290.665 178.423 291.764C182.83 292.863 184.667 300.558 178.423 301.291C172.178 302.024 168.138 299.826 165.934 299.826C163.73 299.826 165.934 292.131 165.934 292.131L166.668 282.603Z" fill="#2C395D"/>
<path d="M130.67 265.748L132.14 281.871L137.65 282.603L141.323 264.282L130.67 265.748Z" fill="#FFB8B8"/>
<path d="M139.119 282.603C139.119 282.603 132.14 278.939 130.671 281.871C130.671 281.871 131.773 290.665 127.365 291.764C122.957 292.863 121.12 300.558 127.365 301.291C133.609 302.024 137.65 299.826 139.854 299.826C142.058 299.826 139.854 292.131 139.854 292.131L139.119 282.603Z" fill="#2C395D"/>
<path d="M160.791 136.399C166.066 136.399 170.341 132.134 170.341 126.872C170.341 121.611 166.066 117.345 160.791 117.345C155.517 117.345 151.241 121.611 151.241 126.872C151.241 132.134 155.517 136.399 160.791 136.399Z" fill="#FFB8B8"/>
<path d="M130.303 145.56L138.016 157.652L147.2 156.92L162.26 158.019C162.26 158.019 163.681 155.183 164.842 152.424C165.478 151.046 165.966 149.605 166.3 148.125C166.668 145.56 161.525 142.995 161.525 142.995C161.525 142.995 161.323 142.959 160.985 142.878C160.537 142.772 159.846 142.596 159.09 142.339C157.382 141.761 155.328 140.778 154.913 139.331C154.179 136.766 159.688 133.102 159.688 133.102L153.077 126.873C153.077 126.873 147.203 135.011 140.07 136.865C139.656 136.974 139.237 137.06 138.814 137.122C138.792 137.125 138.773 137.129 138.751 137.133C131.037 138.232 130.303 145.56 130.303 145.56Z" fill="#FFB8B8"/>
<path d="M134.344 142.263L130.303 145.561C130.303 145.561 126.997 161.317 128.099 165.714C129.201 170.111 127.732 174.142 127.732 174.875C127.732 175.608 124.426 203.09 124.426 203.09C124.426 203.09 117.814 217.747 124.793 216.281C131.772 214.815 129.201 200.158 129.201 200.158L137.65 174.508V152.889L134.344 142.263Z" fill="#FFB8B8"/>
<path d="M163.362 145.194L166.3 147.393L167.77 178.173L178.789 204.556C178.789 204.556 186.87 217.381 181.728 217.747C176.585 218.113 173.28 204.556 173.28 204.556L163.362 179.272L161.893 154.721L163.362 145.194Z" fill="#FFB8B8"/>
<path d="M144.996 147.393C144.996 147.393 152.342 152.523 164.097 150.69C164.097 150.69 167.403 157.286 165.566 160.95C163.729 164.615 167.77 173.409 168.505 174.508C169.239 175.608 177.688 198.326 180.626 222.877C183.565 247.427 191.646 264.283 184.667 266.482C177.688 268.68 163.362 271.245 161.893 269.047C160.423 266.848 158.219 212.25 158.219 212.25L154.179 233.137C154.179 233.137 159.689 268.68 155.648 269.413C151.608 270.146 126.262 267.947 126.997 263.55C127.732 259.153 135.078 236.068 135.078 236.068C135.078 236.068 134.711 189.898 142.057 181.104C142.057 181.104 144.996 176.34 140.955 170.111C136.915 163.882 137.282 153.988 137.282 153.988C137.282 153.988 140.221 153.988 144.996 147.393Z" fill="#2C395D"/>
<path d="M138.814 137.121L144.997 150.69L146.466 149.957L140.071 136.864L138.814 137.121Z" fill="#2C395D"/>
<path d="M159.09 142.34L163.73 152.523L164.843 152.424L164.464 150.691L160.986 142.878C160.538 142.772 159.847 142.596 159.09 142.34Z" fill="#2C395D"/>
<path d="M144.482 134.637C144.836 135.77 145.516 136.775 146.439 137.524C147.362 138.274 148.486 138.735 149.67 138.85C150.855 138.965 152.047 138.728 153.097 138.171C154.148 137.613 155.01 136.758 155.576 135.714C150.929 129.653 154.914 125.846 162.463 122.966C163.031 121.913 163.273 120.716 163.157 119.526C163.042 118.335 162.574 117.206 161.813 116.282C159.732 116.017 157.618 116.219 155.626 116.873C153.633 117.527 151.813 118.617 150.297 120.064L150.293 120.068L144.931 129.99C144.549 130.696 144.312 131.47 144.235 132.268C144.158 133.066 144.242 133.872 144.482 134.637V134.637Z" fill="#2C395D"/>
<path d="M155.098 130.171C155.808 130.171 156.383 129.186 156.383 127.972C156.383 126.758 155.808 125.773 155.098 125.773C154.388 125.773 153.812 126.758 153.812 127.972C153.812 129.186 154.388 130.171 155.098 130.171Z" fill="#FFB8B8"/>
<path d="M158.929 124.384L169.971 129.375L171.995 124.919C171.646 123.291 170.916 121.768 169.864 120.474L162.265 117.041L158.929 124.384Z" fill="#2C395D"/>
<path d="M185.47 222.706C188.179 222.706 190.376 220.515 190.376 217.812C190.376 215.108 188.179 212.917 185.47 212.917C182.76 212.917 180.563 215.108 180.563 217.812C180.563 220.515 182.76 222.706 185.47 222.706Z" fill="#EC4A42"/>
<path d="M27.9464 251.803C29.7174 251.803 31.153 250.371 31.153 248.605C31.153 246.838 29.7174 245.406 27.9464 245.406C26.1754 245.406 24.7397 246.838 24.7397 248.605C24.7397 250.371 26.1754 251.803 27.9464 251.803Z" fill="white"/>
<path d="M44.1471 265.277H43.1658V301.699H44.1471V265.277Z" fill="#2C395D"/>
<path d="M43.657 270.427C46.5085 270.427 48.8201 268.121 48.8201 265.277C48.8201 262.432 46.5085 260.126 43.657 260.126C40.8055 260.126 38.4939 262.432 38.4939 265.277C38.4939 268.121 40.8055 270.427 43.657 270.427Z" fill="#2C395D"/>
<path d="M43.6567 287.724C43.6567 287.724 42.9192 271.899 27.7986 273.738Z" fill="#2C395D"/>
<path d="M308.693 124.03H287.767C287.05 124.03 286.469 124.61 286.469 125.325V146.201C286.47 146.916 287.051 147.495 287.768 147.495H308.693C309.41 147.495 309.992 146.915 309.992 146.2V146.2V125.324C309.991 124.609 309.41 124.03 308.693 124.03Z" fill="#4267B2"/>
<path d="M302.71 147.495V138.42H305.776L306.236 134.869H302.71V132.606C302.71 131.58 302.995 130.881 304.47 130.881H306.339V127.713C306.014 127.67 304.898 127.573 303.6 127.573C300.889 127.573 299.034 129.223 299.034 132.254V134.869H295.979V138.42H299.034V147.495H302.71Z" fill="white"/>
</svg>
